<?xml version="1.0" encoding="UTF-8"?>
<svg version="1.1" xmlns="http://www.w3.org/2000/svg" width="1024" height="1024">
<path d="M0 0 C1.41442383 -0.01836914 1.41442383 -0.01836914 2.85742188 -0.03710938 C8.44656144 -0.04863337 13.57269072 0.46433482 19.02661133 1.68139648 C22.26359036 2.39807464 25.53305555 2.83142447 28.8125 3.3125 C54.52015214 7.43637746 79.70648127 14.82537213 104.72412109 21.89208984 C124.75025572 27.54755186 144.74050731 33.08431444 165.125 37.3125 C165.84173889 37.46310883 166.55847778 37.61371765 167.29693604 37.76889038 C176.0755584 39.68778162 176.0755584 39.68778162 185.01171875 40.2421875 C188.3125 40.1875 188.3125 40.1875 190.1628418 41.13085938 C226.45705912 58.97087897 297.04773611 43.54343653 333.45825195 34.8046875 C337.37123696 33.95856432 340.33289751 33.60864873 344.3125 34.1875 C347.35915643 36.95050788 348.5520239 39.15562693 348.81307125 43.18155193 C348.83372515 44.78884526 348.83235974 46.39651218 348.81370544 48.00382996 C348.81923984 48.89222244 348.82477424 49.78061493 348.83047634 50.69592839 C348.84409285 53.67411611 348.82910693 56.65146716 348.81420898 59.62963867 C348.81799236 61.76550655 348.82349255 63.90137198 348.83058167 66.03723145 C348.84456876 71.84645094 348.83333557 77.65537521 348.81687045 83.46457839 C348.80300565 89.56365289 348.8094831 95.66271046 348.81300354 101.76179504 C348.81570883 112.02719862 348.80221735 122.29248554 348.77905273 132.55786133 C348.75258977 144.36529742 348.75064717 156.17253661 348.7624411 167.97999209 C348.77329968 179.38107351 348.7669594 190.78208486 348.75288582 202.18316078 C348.74718052 207.00980634 348.74716553 211.83639968 348.75195122 216.66304588 C348.78802768 265.74825728 348.78802768 265.74825728 345.3125 286.1875 C345.12640104 287.29540138 344.94030209 288.40330276 344.74856377 289.54477692 C338.55176422 326.04309566 327.49466747 360.90294123 311.3125 394.1875 C310.93851074 394.9604541 310.56452148 395.7334082 310.17919922 396.52978516 C308.2452673 400.50920484 306.26743631 404.46307961 304.23779297 408.39453125 C303.32930021 410.15494571 302.43211513 411.92118097 301.53515625 413.6875 C285.72376644 444.4108928 265.33437289 473.22049011 242.76171875 499.3359375 C240.33949086 502.15607524 238.01018269 505.03514607 235.6875 507.9375 C232.24308122 512.17536525 228.59482378 516.05171539 224.6484375 519.82421875 C222.76022461 521.73453447 221.02767782 523.66469857 219.28515625 525.703125 C214.75457621 530.92506767 209.86526716 535.78468814 204.9699707 540.66040039 C203.37791034 542.24709946 201.7912701 543.83907742 200.20507812 545.43164062 C194.74620062 550.89446087 189.20263078 556.18756128 183.3125 561.1875 C182.12064469 562.23238091 180.93052553 563.27924563 179.7421875 564.328125 C172.0772154 571.04738407 164.26841468 577.50189259 156.19628906 583.72460938 C154.19934568 585.27537204 152.21994845 586.84673299 150.2421875 588.421875 C38.04991868 677.40370737 38.04991868 677.40370737 -9.54296875 672.8046875 C-18.67718008 671.01188577 -26.85423647 667.50771423 -35.25 663.5625 C-36.39243164 663.03052002 -37.53486328 662.49854004 -38.71191406 661.95043945 C-46.43668596 658.32380387 -54.03104833 654.51537222 -61.515625 650.41796875 C-65.04775719 648.48949272 -68.65364947 646.73462225 -72.26953125 644.96875 C-79.82413718 641.24018336 -86.96658079 636.93075615 -94.125 632.5 C-95.9516515 631.37648454 -97.77930161 630.2546106 -99.60722351 629.13316345 C-101.31349609 628.08612551 -103.01870542 627.0373555 -104.72387695 625.98852539 C-107.07095429 624.56218142 -109.42681213 623.17405457 -111.8203125 621.828125 C-114.09038953 620.52917084 -116.08777372 619.24563637 -118.125 617.625 C-121.98568214 614.65922694 -125.97484073 611.92204176 -130 609.1875 C-143.31702664 600.0982263 -156.38778635 590.62194176 -168.6875 580.1875 C-169.74210587 579.2954764 -170.79679797 578.40355474 -171.8515625 577.51171875 C-173.51678881 576.10292602 -175.18100461 574.69302832 -176.84204102 573.27929688 C-180.35131854 570.296594 -183.90963441 567.38520388 -187.5 564.5 C-191.42867422 561.30581705 -195.05839272 557.97695732 -198.54296875 554.3046875 C-200.44629984 552.42562475 -202.39793807 550.6876109 -204.421875 548.94140625 C-208.7115999 545.21594936 -212.74539914 541.277906 -216.75 537.25 C-217.41837891 536.58548828 -218.08675781 535.92097656 -218.77539062 535.23632812 C-222.69274559 531.31135925 -226.41958282 527.27663649 -230.04174805 523.07836914 C-232.4790444 520.27806351 -235.02330993 517.58252945 -237.5625 514.875 C-242.85961346 509.1732746 -247.85101868 503.28749115 -252.6875 497.1875 C-253.52337684 496.14448264 -254.35931684 495.10151588 -255.1953125 494.05859375 C-309.59988555 425.84927504 -347.99479191 346.61555399 -356.6875 259.1875 C-356.76987317 258.36076751 -356.85224634 257.53403502 -356.93711567 256.68225002 C-357.84931608 246.38555473 -357.85766029 236.11896298 -357.88037109 225.7890625 C-357.88828813 223.75587327 -357.89655803 221.72268539 -357.90515137 219.6894989 C-357.93114674 213.06384585 -357.94663812 206.4381871 -357.9609375 199.8125 C-357.96630304 197.52403765 -357.97168055 195.23557533 -357.97706985 192.94711304 C-357.99864926 183.43491663 -358.01739029 173.9227218 -358.02869225 164.4105072 C-358.04497467 150.80159599 -358.07831262 137.1929681 -358.13509309 123.58416367 C-358.17373525 113.99579232 -358.19331707 104.40749703 -358.19861281 94.81904984 C-358.20226882 89.09735645 -358.21432084 83.37596687 -358.24671555 77.65435791 C-358.27670172 72.28287182 -358.28314184 66.91187511 -358.27133179 61.54032326 C-358.27111039 59.56862377 -358.27947016 57.59690208 -358.29698563 55.62528038 C-358.31957904 52.93619739 -358.31142929 50.248905 -358.29550171 47.55981445 C-358.31632484 46.38682265 -358.31632484 46.38682265 -358.33756864 45.19013405 C-358.27919146 41.19779614 -357.83568278 39.37717771 -355.34774208 36.19255066 C-351.78176871 33.5048414 -350.10122584 33.66505898 -345.6875 34.1875 C-342.24286886 34.82801839 -338.84505024 35.62470873 -335.4375 36.4375 C-322.28325108 39.42274824 -309.06295517 41.47890405 -295.6875 43.1875 C-294.77726074 43.30754395 -293.86702148 43.42758789 -292.92919922 43.55126953 C-240.85969079 50.13973647 -187.14124072 42.94189659 -136.70410156 29.62719727 C-134.6875 29.1875 -134.6875 29.1875 -131.6875 29.1875 C-131.3575 28.5275 -131.0275 27.8675 -130.6875 27.1875 C-128.58294678 26.66056824 -128.58294678 26.66056824 -125.83496094 26.25073242 C-119.87386905 25.26239813 -114.14468066 23.79646991 -108.328125 22.17578125 C-106.15159179 21.57944548 -103.97499432 20.98334418 -101.79833984 20.38745117 C-100.67627136 20.07858978 -99.55420288 19.76972839 -98.39813232 19.45150757 C-78.67593896 14.02885226 -58.9639636 8.88330783 -38.93505859 4.72143555 C-36.66928387 4.27354836 -36.66928387 4.27354836 -34.6875 3.1875 C-33.30086953 2.98135749 -31.90720247 2.82115616 -30.51171875 2.6875 C-29.68349609 2.605 -28.85527344 2.5225 -28.00195312 2.4375 C-26.70161133 2.31375 -26.70161133 2.31375 -25.375 2.1875 C-23.67035539 2.02307309 -21.96591923 1.85646798 -20.26171875 1.6875 C-19.12609497 1.57921875 -19.12609497 1.57921875 -17.9675293 1.46875 C-15.64357742 1.21464956 -15.64357742 1.21464956 -13.2109375 0.66674805 C-8.83615425 -0.16410523 -4.44030385 0.00297408 0 0 Z M-64.6875 90.1875 C-66.61046343 93.28942195 -66.9376928 95.65253246 -66.9390564 99.27319336 C-66.94443924 100.29943817 -66.94982208 101.32568298 -66.95536804 102.38302612 C-66.94918205 104.06321335 -66.94918205 104.06321335 -66.94287109 105.77734375 C-66.94649155 106.96143829 -66.950112 108.14553284 -66.95384216 109.36550903 C-66.96253876 112.60927543 -66.96275175 115.85292607 -66.9604907 119.09669876 C-66.9612388 122.49280636 -66.97630302 125.88884032 -66.99087524 129.28491211 C-67.03788323 140.85039683 -67.06184786 152.41586928 -67.06835938 163.98144531 C-67.07210896 170.37165945 -67.0901278 176.76167697 -67.12345374 183.15180683 C-67.14036221 186.5322904 -67.14948136 189.91241633 -67.14051437 193.29293823 C-67.13347437 197.06148117 -67.15066374 200.82919202 -67.17333984 204.59765625 C-67.16108116 206.27784348 -67.16108116 206.27784348 -67.14857483 207.99197388 C-67.15959732 209.01821869 -67.17061981 210.0444635 -67.18197632 211.10180664 C-67.18306585 211.99259415 -67.18415539 212.88338165 -67.18527794 213.80116272 C-67.85238571 216.97096402 -69.20752334 218.1714417 -71.6875 220.1875 C-77.27454718 221.83422495 -83.41726589 221.29781183 -89.19726562 221.25341797 C-90.34917892 221.24874512 -91.50109222 221.24407227 -92.68791199 221.23925781 C-95.18421884 221.22877196 -97.6805173 221.21611481 -100.17680359 221.20153427 C-104.12751407 221.17949918 -108.07817651 221.16542854 -112.02893066 221.15383911 C-123.2600758 221.12047967 -134.49114539 221.07876594 -145.72216797 221.01611328 C-152.59551058 220.97786219 -159.46877453 220.95544784 -166.34220886 220.94180679 C-168.96089453 220.93374985 -171.57956919 220.92013728 -174.19819641 220.90087509 C-177.85814502 220.87441745 -181.51770205 220.86650479 -185.17773438 220.86279297 C-186.80034431 220.84425766 -186.80034431 220.84425766 -188.45573425 220.8253479 C-193.8860133 220.83988219 -198.11216229 220.89773537 -202.6875 224.1875 C-204.48159832 227.08109376 -204.93919051 229.27345883 -204.94819641 232.65231323 C-204.95528122 233.54104126 -204.96236603 234.42976929 -204.96966553 235.34542847 C-204.96718811 236.31279938 -204.96471069 237.28017029 -204.9621582 238.27685547 C-204.96726913 239.3016803 -204.97238007 240.32650513 -204.97764587 241.38238525 C-204.99155608 244.77321193 -204.99058389 248.16383566 -204.98828125 251.5546875 C-204.99216761 253.91114376 -204.99650216 256.26759931 -205.00126648 258.62405396 C-205.00873193 263.56531036 -205.00843519 268.50649532 -205.00317383 273.44775391 C-204.9973812 279.77858598 -205.01430388 286.10912531 -205.0375185 292.43990898 C-205.05225425 297.30752267 -205.0531277 302.17506586 -205.05000877 307.04269791 C-205.05052214 309.37667546 -205.05576277 311.71065695 -205.06582069 314.04461288 C-205.07816329 317.30972018 -205.07140586 320.57425723 -205.05981445 323.83935547 C-205.06745819 324.80267792 -205.07510193 325.76600037 -205.08297729 326.7585144 C-205.04263961 331.90181561 -204.89580332 335.92914744 -201.6875 340.1875 C-195.74417053 343.92143259 -189.82752542 343.57816768 -182.97241211 343.48046875 C-181.81059921 343.47608795 -180.64878632 343.47170715 -179.45176697 343.4671936 C-176.93689569 343.45580386 -174.42204826 343.43748391 -171.90727043 343.41299438 C-167.92707524 343.37463601 -163.94702268 343.35470496 -159.96669006 343.34057617 C-151.51932467 343.30735932 -143.0722017 343.24874262 -134.625 343.1875 C-125.50046181 343.12136634 -116.37602336 343.05965038 -107.25129324 343.02724552 C-102.66182901 343.00993899 -98.0728942 342.96922116 -93.48362732 342.92456055 C-91.08015319 342.91366282 -88.67667505 342.90360765 -86.27319336 342.89453125 C-85.18367371 342.87903229 -84.09415405 342.86353333 -82.97161865 342.8475647 C-77.48238194 342.84641282 -73.37646071 342.96575756 -68.6875 346.1875 C-67.44670791 348.66908417 -67.5600566 350.31845103 -67.55619812 353.09515381 C-67.55018585 354.65130402 -67.55018585 354.65130402 -67.54405212 356.2388916 C-67.5448452 357.95320374 -67.5448452 357.95320374 -67.5456543 359.70214844 C-67.54217987 360.90224548 -67.53870544 362.10234253 -67.53512573 363.33880615 C-67.52775823 365.95250777 -67.52208998 368.56615832 -67.51883507 371.17986298 C-67.51292686 375.31512125 -67.49638744 379.45029336 -67.47749329 383.58551025 C-67.47115566 385.00120158 -67.46483004 386.41689295 -67.45851612 387.83258438 C-67.45535031 388.54164444 -67.4521845 389.25070451 -67.44892275 389.98125124 C-67.4068514 399.60955575 -67.37388102 409.23782066 -67.36157227 418.86621094 C-67.35318669 425.35898813 -67.33067627 431.85155252 -67.2922166 438.34422326 C-67.27246916 441.7795533 -67.26004676 445.21456533 -67.26505089 448.64995575 C-67.27056929 452.48527013 -67.2452707 456.32004828 -67.2175293 460.15527344 C-67.22413071 461.29005127 -67.23073212 462.4248291 -67.23753357 463.59399414 C-67.16454517 469.73339135 -66.88195112 473.55470482 -62.6875 478.1875 C-60.30834863 479.37707569 -58.8462248 479.32091495 -56.1907196 479.33467102 C-54.7712352 479.34540398 -54.7712352 479.34540398 -53.32307434 479.35635376 C-52.28148666 479.35904266 -51.23989899 479.36173157 -50.16674805 479.36450195 C-49.07233398 479.37107315 -47.97791992 479.37764435 -46.8503418 479.38441467 C-43.21663348 479.40417923 -39.58296654 479.41581677 -35.94921875 479.42578125 C-34.71061411 479.42985678 -33.47200947 479.4339323 -32.19587135 479.43813133 C-26.31776985 479.4568507 -20.43968156 479.47141401 -14.56155747 479.4797433 C-7.77756954 479.48951502 -0.99390796 479.51583229 5.78996497 479.55624419 C11.66645832 479.59004867 17.5428422 479.60188878 23.41942406 479.60594749 C25.91891888 479.6108274 28.41840987 479.62248102 30.91784096 479.64098549 C34.41334833 479.66525747 37.90799912 479.66443341 41.40356445 479.6574707 C42.95683693 479.67668579 42.95683693 479.67668579 44.54148865 479.69628906 C48.94882833 479.66423594 51.57874558 479.62076353 55.43180847 477.34562683 C58.306942 474.0463602 58.43795926 471.35848124 58.44380188 467.14613342 C58.44781006 466.10443497 58.45181824 465.06273651 58.45594788 463.98947144 C58.45541916 462.84704987 58.45489044 461.7046283 58.4543457 460.52758789 C58.45782013 459.32413223 58.46129456 458.12067657 58.46487427 456.88075256 C58.47223489 454.26324458 58.47790629 451.64578744 58.48116493 449.02827644 C58.48707732 444.88928688 58.5036192 440.75038319 58.52250671 436.61143494 C58.5288439 435.19427972 58.53516952 433.77712446 58.54148388 432.35996914 C58.5462326 431.29548229 58.5462326 431.29548229 58.55107725 430.20949066 C58.59315497 420.57400172 58.62613869 410.93855324 58.63842773 401.30297852 C58.64680346 394.80252226 58.66927397 388.30227908 58.7077834 381.80192941 C58.72755756 378.36220653 58.73994423 374.92280224 58.73494911 371.48301888 C58.72944679 367.64740516 58.75468343 363.81233102 58.7824707 359.97680664 C58.77586929 358.8364093 58.76926788 357.69601196 58.76246643 356.52105713 C58.77493408 355.47653885 58.78740173 354.43202057 58.80024719 353.35585022 C58.80382972 351.9955977 58.80382972 351.9955977 58.80748463 350.60786533 C59.48182684 347.37597456 60.73118921 346.19193624 63.3125 344.1875 C65.26494312 343.58044243 65.26494312 343.58044243 67.33906555 343.44161987 C68.13041208 343.3863702 68.92175861 343.33112053 69.73708534 343.27419662 C74.45686305 343.11531394 79.16526114 343.0839621 83.88745117 343.12158203 C85.01054184 343.12625488 86.13363251 343.13092773 87.29075623 343.13574219 C89.71498288 343.14619697 92.13920089 343.15884346 94.56340599 343.17346573 C98.40094017 343.19557447 102.23842438 343.20959667 106.07600403 343.22116089 C116.98197209 343.25468284 127.88785839 343.29630599 138.79370117 343.35888672 C145.47599062 343.39713809 152.15817883 343.41954995 158.84057045 343.43319321 C161.38389747 343.44124654 163.9272132 343.45485405 166.47047997 343.47412491 C170.0223365 343.50058339 173.57378962 343.50849501 177.12573242 343.51220703 C178.17470703 343.5245639 179.22368164 343.53692078 180.30444336 343.5496521 C185.69979655 343.53477153 189.72943897 343.37331409 194.3125 340.1875 C196.90250518 337.2947257 197.68873633 335.46998774 197.70690918 331.60206604 C197.72393387 330.22894257 197.72393387 330.22894257 197.74130249 328.82807922 C197.73837189 327.83108505 197.73544128 326.83409088 197.73242188 325.80688477 C197.74089142 324.75119293 197.74936096 323.6955011 197.75808716 322.6078186 C197.7815049 319.1147256 197.78247816 315.62207184 197.78125 312.12890625 C197.78834854 309.70279259 197.79604708 307.27668062 197.80432129 304.85057068 C197.81777701 299.76385838 197.81932984 294.67730131 197.81347656 289.59057617 C197.80757882 283.06889277 197.83817115 276.54795337 197.87859344 270.02641392 C197.90442976 265.01555867 197.90735153 260.00488354 197.90370178 254.99397087 C197.90539675 252.5893765 197.91507529 250.18477413 197.93284607 247.78024483 C197.9549548 244.41882502 197.94537363 241.05892391 197.92773438 237.69750977 C197.94099762 236.70253983 197.95426086 235.70756989 197.96792603 234.68244934 C197.91365273 230.23633042 197.75030585 227.85346169 195.26425171 224.07183838 C191.60318878 221.73469012 188.68431622 221.47792177 184.46923828 221.52807617 C183.6923465 221.51759247 182.91545471 221.50710876 182.11502075 221.49630737 C179.5372147 221.4674653 176.96075231 221.47387947 174.3828125 221.48046875 C172.55523052 221.46731152 170.72766296 221.45199521 168.90011597 221.43464661 C164.05870073 221.39467048 159.2176593 221.38461075 154.37609863 221.38061523 C149.60607365 221.37150041 144.83629837 221.33383773 140.06640625 221.29882812 C125.97670206 221.20481829 111.88709866 221.14602009 97.79722023 221.23158169 C94.17840702 221.25353769 90.5595739 221.26934211 86.94073105 221.28554726 C84.4307417 221.30040504 81.92104808 221.32667526 79.41116333 221.3535614 C77.88853208 221.36162639 76.36589817 221.36920742 74.84326172 221.3762207 C73.52800507 221.38788773 72.21274841 221.39955475 70.8576355 221.41157532 C67.27647308 221.18522287 64.58875835 220.63868239 61.3125 219.1875 C59.14938807 215.9428321 59.06003504 215.05133655 59.04748535 211.30471802 C59.03921219 210.29812134 59.03093903 209.29152466 59.02241516 208.25442505 C59.02339706 207.15097748 59.02437897 206.04752991 59.02539062 204.91064453 C59.01855759 203.74780945 59.01172455 202.58497437 59.00468445 201.38690186 C58.99107811 198.85782944 58.98203664 196.32872935 58.97697449 193.7996254 C58.96870584 189.79894589 58.94850406 185.79842722 58.92443848 181.79782104 C58.87546084 173.30275358 58.84315643 164.80765034 58.8125 156.3125 C58.77940938 147.14823949 58.74344436 137.98404498 58.68836927 128.81988609 C58.66128986 124.20422387 58.64951008 119.58865795 58.64025879 114.97293091 C58.62728724 112.55633228 58.61376706 110.13973651 58.59960938 107.72314453 C58.60059128 106.62374542 58.60157318 105.52434631 58.60258484 104.39163208 C58.59431168 103.37939575 58.58603851 102.36715942 58.57751465 101.32424927 C58.57458153 100.44783342 58.57164841 99.57141758 58.5686264 98.66844368 C58.19327041 95.03259409 57.1932151 92.17390092 54.75 89.4375 C48.38822045 86.17504895 39.90827384 87.03483759 32.91503906 87.02636719 C31.91713852 87.02140228 30.91923798 87.01643738 29.89109802 87.01132202 C26.62009981 86.99682346 23.34914993 86.9899225 20.078125 86.984375 C17.79368083 86.97861761 15.50923665 86.97285995 13.22479248 86.96710205 C8.45047787 86.95663012 3.67617993 86.9507612 -1.09814453 86.94726562 C-7.21704467 86.94175962 -13.3357247 86.9176708 -19.45455551 86.88929367 C-24.16598158 86.87068874 -28.87735408 86.86546304 -33.58881378 86.86392975 C-35.8454739 86.8609027 -38.10213306 86.85287245 -40.35875702 86.83974457 C-43.50855 86.82271384 -46.65779701 86.82455609 -49.80761719 86.83105469 C-50.73862747 86.8218399 -51.66963776 86.81262512 -52.62886047 86.8031311 C-57.42171429 86.83414954 -60.88886832 86.91828146 -64.6875 90.1875 Z " fill="#0057A0" transform="translate(515.6875,335.8125)"/>
<path d="M0 0 C0 0.66 0 1.32 0 2 C0.54527344 2.09796875 1.09054687 2.1959375 1.65234375 2.296875 C6.8356792 3.32468169 11.31091062 4.86593102 16.0546875 7.1953125 C18.11116848 8.19112126 18.11116848 8.19112126 21 8 C21 8.66 21 9.32 21 10 C21.54160263 10.16974838 22.08320526 10.33949677 22.64122009 10.51438904 C28.36921573 12.35975786 33.831401 14.56724617 39.31640625 17.03515625 C40.63379539 17.621866 40.63379539 17.621866 41.97779846 18.22042847 C44.84122354 19.49700294 47.70188932 20.77963287 50.5625 22.0625 C52.5602474 22.95481461 54.55813341 23.84681896 56.55615234 24.73852539 C62.70708234 27.4857156 68.85398475 30.24183528 75 33 C75.97366516 33.43679077 76.94733032 33.87358154 77.95050049 34.3236084 C86.79183185 38.29022847 95.63109289 42.26144679 104.46528625 46.24394226 C105.96492177 46.91993259 107.46481982 47.59534088 108.9650116 48.27009583 C112.13448386 49.69745526 115.29516202 51.13795707 118.44433594 52.60986328 C119.42950195 53.06989746 120.41466797 53.52993164 121.4296875 54.00390625 C122.25452637 54.39521729 123.07936523 54.78652832 123.92919922 55.18969727 C126.09500686 56.1821976 126.09500686 56.1821976 129 56 C129 56.66 129 57.32 129 58 C130.15886719 58.34675781 131.31773437 58.69351563 132.51171875 59.05078125 C139.08404491 61.24667228 145.30470277 64.23288098 151.57894897 67.14956665 C155.4565801 68.95150563 159.34166355 70.73723433 163.2265625 72.5234375 C164.4320298 73.07814476 164.4320298 73.07814476 165.66184998 73.64405823 C174.30221799 77.61222525 182.99212649 81.46675469 191.6875 85.3125 C201.67388149 89.73224716 211.6450116 94.17700085 221.5625 98.75 C236.78323144 105.76433436 252.11525518 112.52659972 267.45129395 119.28405762 C286.67149403 127.75321443 305.88339584 136.23365673 324.98168945 144.97509766 C326.27163217 145.56546239 327.56158949 146.15579521 328.8515625 146.74609375 C329.77279152 147.16776825 329.77279152 147.16776825 330.71263123 147.59796143 C334.5727565 149.36064696 338.44779301 151.08525502 342.3359375 152.78515625 C343.27574463 153.19813965 344.21555176 153.61112305 345.18383789 154.03662109 C346.85925582 154.77015134 348.53783985 155.4965214 350.22045898 156.21337891 C354.88636741 158.2620821 358.62467481 160.24934961 361 165 C361.375 167.8125 361.375 167.8125 361 171 C356.92920725 176.19406129 351.72359599 178.22988919 345.75 180.75 C343.93156312 181.53477234 342.11381516 182.3211436 340.296875 183.109375 C339.49604492 183.44936523 338.69521484 183.78935547 337.87011719 184.13964844 C336.028471 184.85591051 336.028471 184.85591051 335 186 C334.89050259 187.77714398 334.85090731 189.55863796 334.83886719 191.33911133 C334.82445587 193.05273613 334.82445587 193.05273613 334.80975342 194.80097961 C334.80550354 196.04872665 334.80125366 197.29647369 334.796875 198.58203125 C334.79117493 199.86172287 334.78547485 201.14141449 334.77960205 202.45988464 C334.76907197 205.1811869 334.76324511 207.90245951 334.75976562 210.6237793 C334.75433163 214.07879653 334.73042399 217.53340943 334.70179367 220.98830128 C334.67843304 224.31120166 334.67669939 227.6340532 334.671875 230.95703125 C334.6595282 232.18251175 334.6471814 233.40799225 334.63446045 234.67060852 C334.66570383 246.92488132 337.10988915 256.63350852 343.625 267 C344.62143427 268.62239939 345.61379572 270.24730905 346.6015625 271.875 C347.25632568 272.92300781 347.25632568 272.92300781 347.92431641 273.9921875 C351.14701472 280.00750092 350.70039521 287.64369574 349.64453125 294.2109375 C347.4955217 301.27815013 341.82246114 307.37593208 335.83203125 311.48828125 C328.09825094 315.36221492 319.3898582 316.12661332 311.1875 313.4375 C303.07429283 310.01711194 297.91358902 304.85775296 294 297 C290.80026595 288.31500758 291.67597675 280.49106929 295 272 C296.86547235 268.74433488 298.84901221 265.62957749 300.96484375 262.53125 C306.12158886 254.18314784 307.58734131 245.87880455 307.390625 236.20703125 C307.38496521 235.13498947 307.37930542 234.06294769 307.37347412 232.9584198 C307.35130514 229.57596812 307.30114562 226.19462475 307.25 222.8125 C307.22990983 220.50196856 307.21166351 218.1914203 307.1953125 215.88085938 C307.15150466 210.25353603 307.08479134 204.62684723 307 199 C304.02422946 197.24326198 304.02422946 197.24326198 300.67382812 197.49707031 C299.80177734 197.85381836 298.92972656 198.21056641 298.03125 198.578125 C297.00652588 198.98853027 295.98180176 199.39893555 294.92602539 199.82177734 C293.79543701 200.29309082 292.66484863 200.7644043 291.5 201.25 C290.30689209 201.73291504 289.11378418 202.21583008 287.88452148 202.71337891 C284.39285667 204.12749442 280.91002402 205.56241608 277.42791748 206.99987793 C272.89501038 208.86709972 268.35512909 210.7172833 263.81640625 212.5703125 C257.07701032 215.3225405 250.34071985 218.08206039 243.6088562 220.85266113 C240.17273738 222.26377365 236.73246413 223.66454659 233.2913208 225.06335449 C231.18025318 225.92631615 229.07585945 226.8038257 226.97216797 227.68457031 C225.82506348 228.15217773 224.67795898 228.61978516 223.49609375 229.1015625 C222.53759521 229.49939941 221.57909668 229.89723633 220.59155273 230.30712891 C217.61725402 231.10233001 215.91993548 230.90743467 213 230 C208.28445676 226.89766892 204.38101769 222.50152787 201 218 C201 217.34 201 216.68 201 216 C200.2265625 215.6596875 200.2265625 215.6596875 199.4375 215.3125 C197 214 197 214 194.30078125 211.80859375 C188.42949895 207.59395776 181.45035808 205.32321851 174.75 202.75 C174.01836639 202.46620483 173.28673279 202.18240967 172.53292847 201.89001465 C135.54102699 187.54983384 98.07168397 177.62964438 59 171 C57.38569092 170.72567139 57.38569092 170.72567139 55.73876953 170.44580078 C7.05661179 162.39167566 -45.21994906 162.64948265 -94 170 C-95.2286377 170.17982422 -96.45727539 170.35964844 -97.72314453 170.54492188 C-173.86513983 181.7042131 -173.86513983 181.7042131 -238 218 C-238.66 218 -239.32 218 -240 218 C-240.25652344 218.57363281 -240.51304687 219.14726562 -240.77734375 219.73828125 C-243.32383691 224.44888681 -247.1849333 228.89845216 -252.24609375 230.87890625 C-257.27511862 231.70690861 -259.99989585 230.60441333 -264.53613281 228.22167969 C-269.74582283 225.63851591 -275.2192437 223.63292154 -280.625 221.5 C-281.94708402 220.97537881 -283.2690214 220.45038795 -284.59082031 219.92504883 C-287.34093494 218.83230077 -290.09167474 217.74114687 -292.84277344 216.65087891 C-296.90153394 215.04088728 -300.95539302 213.41884523 -305.0078125 211.79296875 C-305.65415649 211.53370605 -306.30050049 211.27444336 -306.96643066 211.00732422 C-308.255741 210.49014186 -309.54504767 209.97295038 -310.83435059 209.45574951 C-319.33010354 206.04862396 -327.83087769 202.65922719 -336.375 199.375 C-345.22593369 195.96519703 -353.96993498 192.30604649 -362.7109375 188.625 C-367.03235774 186.80888882 -371.37102592 185.04514479 -375.7265625 183.3125 C-376.81888184 182.87268799 -377.91120117 182.43287598 -379.03662109 181.97973633 C-381.13132566 181.13736653 -383.23046429 180.30591516 -385.33447266 179.48706055 C-394.22866137 175.88169707 -394.22866137 175.88169707 -397 171 C-397.6250596 167.24964243 -397.44557725 165.66383896 -395.31787109 162.49389648 C-392.79683823 159.78140958 -390.77774105 158.60347943 -387.4140625 157.09765625 C-386.32416016 156.60233398 -385.23425781 156.10701172 -384.11132812 155.59667969 C-382.3855957 154.83726074 -382.3855957 154.83726074 -380.625 154.0625 C-379.45646484 153.53688477 -378.28792969 153.01126953 -377.08398438 152.46972656 C-373.72876439 150.96556597 -370.36593876 149.47998768 -367 148 C-366.15663086 147.62536621 -365.31326172 147.25073242 -364.44433594 146.86474609 C-353.49076385 142 -353.49076385 142 -351 142 C-350.67 141.34 -350.34 140.68 -350 140 C-348.0158501 139.28754394 -346.0124276 138.62815573 -344 138 C-342.10666 137.21368668 -340.22398674 136.40130292 -338.3515625 135.56640625 C-336.73967041 134.84940552 -336.73967041 134.84940552 -335.09521484 134.11791992 C-333.95004395 133.60463135 -332.80487305 133.09134277 -331.625 132.5625 C-329.82023193 131.75679565 -329.82023193 131.75679565 -327.97900391 130.93481445 C-318.44898932 126.67483339 -308.9560833 122.33520241 -299.47265625 117.97265625 C-291.92827554 114.50363582 -284.37150468 111.06200926 -276.8125 107.625 C-276.11234772 107.30658142 -275.41219543 106.98816284 -274.69082642 106.66009521 C-263.62649259 101.62991283 -252.53895645 96.65340912 -241.44238281 91.69482422 C-233.78946529 88.26850431 -226.16751162 84.78121872 -218.5625 81.25 C-201.45807844 73.31591733 -184.22495609 65.66784475 -167 58 C-166.20672302 57.6468573 -165.41344604 57.2937146 -164.59613037 56.92987061 C-151.44963806 51.07833117 -138.30086659 45.23184706 -125.14299011 39.40594482 C-110.7070562 33.03595566 -110.7070562 33.03595566 -96.375 26.4375 C-81.63695893 19.50691089 -66.72029265 12.95911251 -51.5625 7 C-50.64662109 6.6385791 -49.73074219 6.2771582 -48.78710938 5.90478516 C-32.16175064 -0.53586172 -17.72541319 -1.7599701 0 0 Z " fill="#0057A0" transform="translate(530,24)"/>
<path d="M0 0 C3.40930736 0.00531007 6.81848011 0.00005664 10.2277832 -0.00634766 C21.00980451 -0.01005788 31.7731946 0.11077321 42.54614258 0.57568359 C43.47623642 0.61442596 44.40633026 0.65316833 45.36460876 0.69308472 C46.21350174 0.73442535 47.06239471 0.77576599 47.93701172 0.81835938 C48.67915421 0.8542215 49.42129669 0.89008362 50.18592834 0.92703247 C52.01098633 1.13037109 52.01098633 1.13037109 54.01098633 2.13037109 C56.02860712 2.48079411 58.05374281 2.78827006 60.08129883 3.07568359 C61.35360352 3.26163086 62.6259082 3.44757813 63.93676758 3.63916016 C64.6194873 3.73878052 65.30220703 3.83840088 66.00561523 3.94104004 C94.59098353 8.15874135 122.33358618 14.90160182 150.01098633 23.13037109 C151.2763623 23.50452148 152.54173828 23.87867188 153.84545898 24.26416016 C166.86103581 28.13570142 179.76708963 32.24775126 192.51098633 36.94287109 C193.50227539 37.30380859 194.49356445 37.66474609 195.51489258 38.03662109 C206.55200365 42.21240573 206.55200365 42.21240573 209.01098633 47.13037109 C209.11304145 49.26373431 209.1494173 51.40034088 209.15625 53.53613281 C209.16128792 54.52179733 209.16128792 54.52179733 209.16642761 55.52737427 C209.17594529 57.70495482 209.17788121 59.88245852 209.17895508 62.06005859 C209.18216741 63.57219474 209.18553146 65.08433058 209.18904114 66.59646606 C209.19503467 69.76907064 209.19688084 72.94164797 209.19628906 76.11425781 C209.1961875 80.17863492 209.20983263 84.24283711 209.22706127 88.30717278 C209.23818367 91.43157757 209.24020819 94.55594013 209.23967934 97.6803627 C209.24085936 99.17866747 209.24528243 100.67697334 209.2530117 102.17525864 C209.26281528 104.27223678 209.25993216 106.368836 209.25390625 108.46582031 C209.25533127 109.65891815 209.25675629 110.85201599 209.25822449 112.08126831 C209.01851827 115.03748232 208.63748485 116.68376917 207.01098633 119.13037109 C204.54856894 120.82328304 202.81810879 121.23486445 199.852005 120.8508606 C194.07570628 119.65406715 188.48179784 118.1741792 182.86645508 116.37255859 C181.13519791 115.82771882 179.40391432 115.28296297 177.67260742 114.73828125 C176.77950867 114.45527161 175.88640991 114.17226196 174.96624756 113.88067627 C123.52263742 95.69946513 123.52263742 95.69946513 70.01098633 89.13037109 C70.01098633 88.47037109 70.01098633 87.81037109 70.01098633 87.13037109 C68.80442383 87.05689453 68.80442383 87.05689453 67.57348633 86.98193359 C61.6519289 86.60534332 55.73918576 86.20992198 49.83129883 85.65380859 C1.52724126 81.14995353 -45.48695421 84.03906722 -92.98901367 94.13037109 C-93.9904541 94.33855469 -94.99189453 94.54673828 -96.02368164 94.76123047 C-119.71952323 99.7353293 -143.11742306 106.50400731 -166.10229492 114.09912109 C-166.81923019 114.33524109 -167.53616547 114.57136108 -168.27482605 114.81463623 C-171.6478248 115.92881426 -175.01355544 117.05983936 -178.37060547 118.22119141 C-179.55436768 118.61918945 -180.73812988 119.0171875 -181.95776367 119.42724609 C-183.4959375 119.95850098 -183.4959375 119.95850098 -185.06518555 120.50048828 C-188.53143633 121.24722567 -190.59988426 121.19130615 -193.98901367 120.13037109 C-197.17852121 117.55059581 -198.80079912 116.06191325 -199.62393188 111.9879303 C-199.62790985 110.80911789 -199.63188782 109.63030548 -199.63598633 108.41577148 C-199.64474792 107.76143631 -199.65350952 107.10710114 -199.66253662 106.43293762 C-199.68445403 104.28061619 -199.6700071 102.13036783 -199.65307617 99.97802734 C-199.65644701 98.47496651 -199.66130186 96.97190834 -199.66757202 95.46885681 C-199.67493319 92.32231636 -199.66426503 89.1764869 -199.64086914 86.0300293 C-199.61240486 82.00690775 -199.62877293 77.98545576 -199.65873146 73.96239567 C-199.67684681 70.85924323 -199.67102694 67.75648301 -199.6580925 64.65331841 C-199.65476883 63.1706262 -199.65880893 61.6878978 -199.67049026 60.20524788 C-199.75054938 47.18621845 -199.75054938 47.18621845 -196.65869141 43.28100586 C-193.4433831 40.69082288 -190.30205436 39.27186238 -186.42651367 38.00537109 C-185.62262207 37.72733643 -184.81873047 37.44930176 -183.99047852 37.1628418 C-182.10194017 36.51460639 -180.21002827 35.87615399 -178.31567383 35.24511719 C-175.24856831 34.21734647 -172.19238918 33.16291997 -169.1374054 32.09992981 C-125.42543276 16.91743158 -81.06726393 5.93764693 -34.98901367 1.13037109 C-34.0426001 1.0257959 -33.09618652 0.9212207 -32.12109375 0.81347656 C-21.44501148 -0.19836442 -10.71288143 -0.01978934 0 0 Z " fill="#0057A0" transform="translate(506.989013671875,214.86962890625)"/>
<path d="M0 0 C0.81733612 -0.00571014 1.63467224 -0.01142029 2.47677612 -0.01730347 C3.80866722 -0.01898026 3.80866722 -0.01898026 5.16746521 -0.02069092 C6.10932678 -0.02565582 7.05118835 -0.03062073 8.02159119 -0.03573608 C11.13459504 -0.05033217 14.24754801 -0.05715383 17.36058044 -0.06268311 C19.52244061 -0.06843462 21.68430076 -0.07419235 23.84616089 -0.07995605 C28.37627907 -0.09045735 32.90637954 -0.0963064 37.43650818 -0.09979248 C43.24972084 -0.10528951 49.06270073 -0.12934701 54.87584019 -0.15776443 C59.33928115 -0.17635384 63.80266548 -0.18159434 68.26614189 -0.18312836 C70.41002112 -0.18616144 72.55389921 -0.19421191 74.69774055 -0.20731354 C77.69043575 -0.22430416 80.68255432 -0.22251143 83.67527771 -0.21600342 C84.56522934 -0.2252182 85.45518097 -0.23443298 86.37210083 -0.243927 C87.18661713 -0.23835785 88.00113342 -0.2327887 88.84033203 -0.22705078 C89.54768273 -0.22851734 90.25503344 -0.2299839 90.98381901 -0.2314949 C92.85667419 0.14044189 92.85667419 0.14044189 95.85667419 3.14044189 C61.20667419 3.14044189 26.55667419 3.14044189 -9.14332581 3.14044189 C-8.14332581 1.14044189 -8.14332581 1.14044189 -6.33978367 0.52421951 C-4.1781316 0.14652336 -2.19272547 0.00921628 0 0 Z " fill="#045298" transform="translate(596.1433258056641,677.8595581054688)"/>
<path d="M0 0 C7.3109749 -0.02324056 14.62194175 -0.04097456 21.93294621 -0.05181217 C25.3282763 -0.05701547 28.723581 -0.06406641 32.11889648 -0.07543945 C36.02847991 -0.08845213 39.93805329 -0.09324932 43.84765625 -0.09765625 C45.05833267 -0.10281754 46.26900909 -0.10797882 47.51637268 -0.11329651 C53.11822174 -0.11366745 58.48510743 -0.01710527 64 1 C64 1.66 64 2.32 64 3 C42.55 3 21.1 3 -1 3 C-0.67 2.01 -0.34 1.02 0 0 Z " fill="#034F96" transform="translate(368,678)"/>
<path d="M0 0 C1.72984131 0.00398804 1.72984131 0.00398804 3.49462891 0.00805664 C11.7311499 0.05233901 19.9570274 0.24760342 28.1875 0.5625 C29.75504028 0.62123291 29.75504028 0.62123291 31.35424805 0.68115234 C32.81471558 0.74423584 32.81471558 0.74423584 34.3046875 0.80859375 C35.15401855 0.84525146 36.00334961 0.88190918 36.87841797 0.91967773 C39.41501582 1.13364752 41.8278657 1.57942335 44.3125 2.125 C44.3125 2.455 44.3125 2.785 44.3125 3.125 C21.28664248 3.23877277 -1.6807523 3.16673135 -24.6875 2.125 C-24.6875 1.795 -24.6875 1.465 -24.6875 1.125 C-16.43935095 0.31358545 -8.28610636 -0.03494954 0 0 Z " fill="#06498D" transform="translate(507.6875,294.875)"/>
<path d="M0 0 C23.99516389 -0.20638953 23.99516389 -0.20638953 33 1 C33 1.33 33 1.66 33 2 C4.84846857 3.19388403 4.84846857 3.19388403 -7 3 C-7 2.67 -7 2.34 -7 2 C-3.535 1.505 -3.535 1.505 0 1 C0 0.67 0 0.34 0 0 Z " fill="#0C65AA" transform="translate(471,187)"/>
<path d="M0 0 C1.72007647 3.10262333 2.56501541 5.99850494 3.2890625 9.46484375 C3.50820312 10.51220703 3.72734375 11.55957031 3.953125 12.63867188 C4.17484375 13.72728516 4.3965625 14.81589844 4.625 15.9375 C4.85445312 17.02224609 5.08390625 18.10699219 5.3203125 19.22460938 C6.28568177 23.89918021 7.14252466 28.2091044 7 33 C6.505 31.515 6.505 31.515 6 30 C5.34 30 4.68 30 4 30 C1.49036548 19.91664703 -0.73974749 10.47975609 0 0 Z " fill="#084F92" transform="translate(164,620)"/>
<path d="M0 0 C0.82822266 -0.00128906 1.65644531 -0.00257813 2.50976562 -0.00390625 C3.37666016 -0.00003906 4.24355469 0.00382813 5.13671875 0.0078125 C5.99201172 0.00394531 6.84730469 0.00007812 7.72851562 -0.00390625 C11.88712744 0.00253622 15.77013821 0.07958745 19.82421875 1.1328125 C19.82421875 1.7928125 19.82421875 2.4528125 19.82421875 3.1328125 C11.24421875 3.1328125 2.66421875 3.1328125 -6.17578125 3.1328125 C-6.17578125 2.4728125 -6.17578125 1.8128125 -6.17578125 1.1328125 C-3.87690808 -0.01662408 -2.55487511 0.00382344 0 0 Z " fill="#035097" transform="translate(330.17578125,677.8671875)"/>
<path d="M0 0 C-3.80773693 2.53849129 -7.56055664 3.47302797 -11.9375 4.6875 C-12.74896484 4.92533203 -13.56042969 5.16316406 -14.39648438 5.40820312 C-15.18216797 5.62798828 -15.96785156 5.84777344 -16.77734375 6.07421875 C-17.49140381 6.27619873 -18.20546387 6.47817871 -18.94116211 6.6862793 C-21.25122486 7.03828103 -22.79230597 6.70940527 -25 6 C-24.01 6 -23.02 6 -22 6 C-22 5.34 -22 4.68 -22 4 C-19.46298366 3.12921886 -16.9219473 2.27830484 -14.375 1.4375 C-13.66214844 1.19064453 -12.94929688 0.94378906 -12.21484375 0.68945312 C-7.7562878 -0.76264537 -4.66944018 -1.22996295 0 0 Z " fill="#095EA4" transform="translate(388,314)"/>
<path d="M0 0 C8.26943544 -0.84381994 15.3509127 2.21127025 23 5 C23 5.66 23 6.32 23 7 C23.66 7.33 24.32 7.66 25 8 C16.45923559 6.32234985 8.27435964 3.65997819 0 1 C0 0.67 0 0.34 0 0 Z " fill="#0A599F" transform="translate(667,323)"/>
<path d="M0 0 C3.03708705 1.34981647 5.03741247 2.83916739 7.3125 5.25 C10.69808043 8.74550187 14.26855998 11.87777468 18 15 C17.01 15.33 16.02 15.66 15 16 C12.86823936 14.09042286 10.7446755 12.17291237 8.625 10.25 C8.02171875 9.71117187 7.4184375 9.17234375 6.796875 8.6171875 C6.21679688 8.08867188 5.63671875 7.56015625 5.0390625 7.015625 C4.50490723 6.53383789 3.97075195 6.05205078 3.42041016 5.55566406 C1.8449654 3.83020274 0.95002452 2.12452742 0 0 Z " fill="#075195" transform="translate(314,885)"/>
<path d="M0 0 C9.59567793 -0.23889655 18.53149174 0.21168141 28 2 C28 2.33 28 2.66 28 3 C25.18743719 3.02684312 22.37512759 3.04676188 19.5625 3.0625 C18.76005859 3.07087891 17.95761719 3.07925781 17.13085938 3.08789062 C15.08704779 3.0965143 13.04316098 3.0522815 11 3 C10.67 2.67 10.34 2.34 10 2 C8.31816052 1.76712992 6.6287584 1.58735834 4.9375 1.4375 C4.01839844 1.35371094 3.09929688 1.26992187 2.15234375 1.18359375 C1.08693359 1.09271484 1.08693359 1.09271484 0 1 C0 0.67 0 0.34 0 0 Z " fill="#05488D" transform="translate(546,188)"/>
<path d="M0 0 C4.81600823 0.76245421 9.24615702 2.41279856 13.8125 4.0625 C14.60076172 4.34416016 15.38902344 4.62582031 16.20117188 4.91601562 C18.13522289 5.60758538 20.06776488 6.30337278 22 7 C18.36210152 8.21263283 16.79592854 7.65329292 13.125 6.6875 C12.09632813 6.42324219 11.06765625 6.15898437 10.0078125 5.88671875 C7.2519006 5.07426161 4.64475038 4.11743143 2 3 C2 2.34 2 1.68 2 1 C1.34 0.67 0.68 0.34 0 0 Z " fill="#0C60A7" transform="translate(683,247)"/>
<path d="M0 0 C2.9552728 2.61778794 4.75832727 5.67583335 6.75 9.0625 C7.38421875 10.12597656 8.0184375 11.18945312 8.671875 12.28515625 C9.11015625 13.18105469 9.5484375 14.07695313 10 15 C9.67 15.66 9.34 16.32 9 17 C6.40447673 14.62271893 4.64011062 12.06339151 2.8125 9.0625 C2.28269531 8.20785156 1.75289062 7.35320313 1.20703125 6.47265625 C0 4 0 4 0 0 Z " fill="#064E91" transform="translate(211,753)"/>
<path d="M0 0 C4.29 0 8.58 0 13 0 C9.91433716 2.05710856 7.63014688 2.78346093 4.0625 3.6875 C2.50208984 4.09548828 2.50208984 4.09548828 0.91015625 4.51171875 C-1.8705956 4.97828785 -3.38480882 4.93894816 -6 4 C-3 2 -3 2 0 2 C0 1.34 0 0.68 0 0 Z " fill="#075298" transform="translate(384,363)"/>
<path d="M0 0 C2.25 -0.25 2.25 -0.25 5 0 C7.24432982 1.87027485 8.69443202 3.38886404 10 6 C10.039992 7.99960012 10.04346799 10.00047242 10 12 C9.01 12.33 8.02 12.66 7 13 C6.95875 11.7625 6.9175 10.525 6.875 9.25 C6.43356772 5.41293477 6.20167244 5.1605148 2.9375 2.5625 C1.968125 2.046875 0.99875 1.53125 0 1 C0 0.67 0 0.34 0 0 Z " fill="#074F8F" transform="translate(881,183)"/>
<path d="M0 0 C0 0.33 0 0.66 0 1 C-2.39469729 1.50604924 -4.79051717 2.00499517 -7.1875 2.5 C-7.86103516 2.64308594 -8.53457031 2.78617187 -9.22851562 2.93359375 C-12.87509793 3.68069842 -16.27648957 4.17352282 -20 4 C-14.73184523 -2.43885584 -7.3772879 -0.97138666 0 0 Z " fill="#075095" transform="translate(491,340)"/>
<path d="M0 0 C8.862582 -0.33165588 17.2580141 0.6786742 26 2 C26 2.33 26 2.66 26 3 C20.39 3 14.78 3 9 3 C9 2.34 9 1.68 9 1 C6.03 1 3.06 1 0 1 C0 0.67 0 0.34 0 0 Z " fill="#044388" transform="translate(553,298)"/>
<path d="M0 0 C2 0 2 0 3.5859375 1.57421875 C4.17632812 2.27160156 4.76671875 2.96898437 5.375 3.6875 C6.30119141 4.77611328 6.30119141 4.77611328 7.24609375 5.88671875 C9.19461463 8.23449112 11.1215998 10.59564775 13 13 C8.96685318 12.46348047 7.05548319 10.45798792 4.25 7.625 C3.45078125 6.83351563 2.6515625 6.04203125 1.828125 5.2265625 C0 3 0 3 0 0 Z " fill="#085396" transform="translate(299,870)"/>
<path d="M0 0 C1.89180758 0.37507618 3.78821577 0.72733219 5.6875 1.0625 C7.17830078 1.32740234 7.17830078 1.32740234 8.69921875 1.59765625 C9.83810547 1.79681641 9.83810547 1.79681641 11 2 C11 2.33 11 2.66 11 3 C4.23893038 4.27567351 -1.31349436 3.48725585 -8 2 C-8 1.34 -8 0.68 -8 0 C-4.71303767 -0.79953138 -3.28976808 -1.09658936 0 0 Z " fill="#0B5EA3" transform="translate(704,377)"/>
<path d="M0 0 C-0.66 0 -1.32 0 -2 0 C-2 0.66 -2 1.32 -2 2 C-10.261959 5.62870159 -10.261959 5.62870159 -15 4 C-15.33 3.01 -15.66 2.02 -16 1 C-14.783125 1.04125 -13.56625 1.0825 -12.3125 1.125 C-7.7279118 1.14929994 -4.28269628 -1.42756543 0 0 Z " fill="#075298" transform="translate(758,250)"/>
<path d="M0 0 C0.33 0.99 0.66 1.98 1 3 C-0.59370671 4.36646148 -2.20032982 5.71787166 -3.8125 7.0625 C-5.15248047 8.19365234 -5.15248047 8.19365234 -6.51953125 9.34765625 C-7.33808594 9.89292969 -8.15664063 10.43820312 -9 11 C-9.99 10.67 -10.98 10.34 -12 10 C-9.44340192 5.78913258 -6.2201838 4.30191844 -2 2 C-1.34 1.34 -0.68 0.68 0 0 Z " fill="#064E92" transform="translate(684,906)"/>
<path d="M0 0 C2.49936244 2.49936244 3.03723753 4.64808008 4.125 8 C4.47820312 9.0725 4.83140625 10.145 5.1953125 11.25 C6 14 6 14 6 16 C5.01 16 4.02 16 3 16 C0.89424625 10.47239641 -0.37851209 5.93002267 0 0 Z " fill="#085093" transform="translate(175,668)"/>
<path d="M0 0 C0 0.33 0 0.66 0 1 C-0.90363281 1.13277344 -1.80726563 1.26554687 -2.73828125 1.40234375 C-4.50751953 1.66724609 -4.50751953 1.66724609 -6.3125 1.9375 C-8.07013672 2.19853516 -8.07013672 2.19853516 -9.86328125 2.46484375 C-13.01641403 2.92093031 -13.01641403 2.92093031 -16 4 C-12.86705411 -2.93723734 -6.69510777 -1.62305643 0 0 Z " fill="#0E5FA0" transform="translate(175,371)"/>
<path d="M0 0 C3.23693164 1.48483103 5.9325625 3.32707435 8.75 5.5 C9.54921875 6.1084375 10.3484375 6.716875 11.171875 7.34375 C11.77515625 7.8903125 12.3784375 8.436875 13 9 C13 9.66 13 10.32 13 11 C9.42594199 10.40566226 7.49886665 9.01400148 4.8125 6.625 C4.11769531 6.01914062 3.42289062 5.41328125 2.70703125 4.7890625 C1 3 1 3 0 0 Z " fill="#064F92" transform="translate(333,902)"/>
<path d="M0 0 C0.33 0.99 0.66 1.98 1 3 C-0.58203125 5.69921875 -0.58203125 5.69921875 -2.8125 8.6875 C-3.90498047 10.17830078 -3.90498047 10.17830078 -5.01953125 11.69921875 C-5.99986328 12.83810547 -5.99986328 12.83810547 -7 14 C-7.66 14 -8.32 14 -9 14 C-7.65070536 10.16336928 -5.92248975 7.34827431 -3.375 4.1875 C-2.42753906 3.00220703 -2.42753906 3.00220703 -1.4609375 1.79296875 C-0.97882812 1.20128906 -0.49671875 0.60960937 0 0 Z " fill="#085195" transform="translate(784,798)"/>
<path d="M0 0 C4.25171681 3.3618226 7.6381774 6.74828319 11 11 C10.01 11.33 9.02 11.66 8 12 C6.65772954 10.57084149 5.32642904 9.13137328 4 7.6875 C3.2575 6.88699219 2.515 6.08648438 1.75 5.26171875 C0 3 0 3 0 0 Z " fill="#074F93" transform="translate(286,856)"/>
<path d="M0 0 C0.66 1.32 1.32 2.64 2 4 C1.34 4 0.68 4 0 4 C0.08378906 4.58007812 0.16757812 5.16015625 0.25390625 5.7578125 C0.86209421 10.42315303 1.07205665 14.35442117 0 19 C-2.69926097 14.78240474 -2.52437021 10.58116717 -1.546875 5.76953125 C-1.06798763 3.83687864 -0.5381075 1.91700797 0 0 Z " fill="#0E65AA" transform="translate(824,299)"/>
<path d="M0 0 C0.66 0.66 1.32 1.32 2 2 C0.10507994 2.33848652 -1.79098466 2.67056911 -3.6875 3 C-4.74324219 3.185625 -5.79898437 3.37125 -6.88671875 3.5625 C-9.64904062 3.95068074 -12.21742043 4.08259976 -15 4 C-13.17215282 1.6644175 -12.11699486 1.02859874 -9.1875 0.3125 C-6.06915504 0.00677991 -3.12792195 -0.21326741 0 0 Z " fill="#0B5FA6" transform="translate(444,301)"/>
<path d="M0 0 C-4.46637991 2.23318995 -7.03570488 3.11664144 -12.125 3.0625 C-13.22070312 3.05347656 -14.31640625 3.04445312 -15.4453125 3.03515625 C-16.70988281 3.01775391 -16.70988281 3.01775391 -18 3 C-12.49756101 -0.66829266 -6.39456234 -0.12789125 0 0 Z " fill="#05498E" transform="translate(442,191)"/>
<path d="M0 0 C7.71589817 -0.1567564 15.31516461 0.32546899 23 1 C23 1.33 23 1.66 23 2 C19.91826331 2.25561761 16.83497376 2.47482039 13.75 2.6875 C12.44095703 2.79674805 12.44095703 2.79674805 11.10546875 2.90820312 C4.58401668 3.33135078 4.58401668 3.33135078 1.390625 1.51953125 C0.93171875 1.01808594 0.4728125 0.51664062 0 0 Z " fill="#0F6DB3" transform="translate(220,380)"/>
<path d="M0 0 C4.24404412 3.88026891 7.10917547 8.04254346 10 13 C9.01 13 8.02 13 7 13 C5.17578125 10.91796875 5.17578125 10.91796875 3.3125 8.1875 C2.68988281 7.29417969 2.06726563 6.40085937 1.42578125 5.48046875 C0 3 0 3 0 0 Z " fill="#074F92" transform="translate(242,802)"/>
<path d="M0 0 C1.4606285 2.64738916 2 3.89448334 2 7 C2.66 7 3.32 7 4 7 C5.6875 9.25 5.6875 9.25 7 12 C6.58203125 14.171875 6.58203125 14.171875 6 16 C2.13095043 10.63187218 0.35544557 6.63498399 0 0 Z " fill="#04488B" transform="translate(863,272)"/>
<path d="M0 0 C0.99 0.495 0.99 0.495 2 1 C4.38056989 8.64288227 4.38056989 8.64288227 3 13 C-0.36055646 8.51925805 -0.27429625 5.39449293 0 0 Z " fill="#074C8E" transform="translate(171,654)"/>
<path d="M0 0 C5.15171623 -0.09038099 9.91913204 0.15318867 15 1 C15 1.33 15 1.66 15 2 C13.06325815 2.19517554 11.12555991 2.38087873 9.1875 2.5625 C8.10855469 2.66691406 7.02960938 2.77132813 5.91796875 2.87890625 C3 3 3 3 0 2 C0 1.34 0 0.68 0 0 Z " fill="#0B62A7" transform="translate(205,378)"/>
<path d="M0 0 C0.98484375 0.00902344 1.9696875 0.01804687 2.984375 0.02734375 C4.10585938 0.04474609 4.10585938 0.04474609 5.25 0.0625 C2.28837914 1.68727811 -0.44266927 2.57945886 -3.75 3.25 C-4.595625 3.42917969 -5.44125 3.60835938 -6.3125 3.79296875 C-8.78021411 4.06584098 -10.40849506 3.82674119 -12.75 3.0625 C-11.76 3.0625 -10.77 3.0625 -9.75 3.0625 C-9.75 2.4025 -9.75 1.7425 -9.75 1.0625 C-6.43929162 0.06140485 -3.44915231 -0.04106134 0 0 Z " fill="#0D6CB3" transform="translate(408.75,307.9375)"/>
<path d="M0 0 C0.33 0 0.66 0 1 0 C0.46148032 5.27749285 -0.77343836 9.25645564 -3 14 C-3.66 13.01 -4.32 12.02 -5 11 C-4.1015625 8.30078125 -4.1015625 8.30078125 -2.625 5.3125 C-2.14289062 4.31863281 -1.66078125 3.32476563 -1.1640625 2.30078125 C-0.77992188 1.54152344 -0.39578125 0.78226563 0 0 Z " fill="#095297" transform="translate(833,710)"/>
<path d="M0 0 C-2.12966005 2.12966005 -3.04068204 2.47624662 -5.875 3.1875 C-6.55304688 3.36667969 -7.23109375 3.54585938 -7.9296875 3.73046875 C-10.22818556 4.02970718 -11.80550964 3.69377386 -14 3 C-8.99067246 -0.00559652 -5.67276511 -0.29341888 0 0 Z " fill="#064F95" transform="translate(444,350)"/>
<path d="M0 0 C-3.11910856 1.79275866 -5.67682428 2.34290718 -9.25 2.625 C-10.14203125 2.69976562 -11.0340625 2.77453125 -11.953125 2.8515625 C-12.62859375 2.90054687 -13.3040625 2.94953125 -14 3 C-12 0 -12 0 -9.8125 -0.75 C-6.40119394 -1.05322721 -3.3627061 -0.59341872 0 0 Z " fill="#0A62A9" transform="translate(428,305)"/>
<path d="M0 0 C-0.66 0 -1.32 0 -2 0 C-2 0.66 -2 1.32 -2 2 C-3.41377782 2.36552803 -4.83120576 2.71695495 -6.25 3.0625 C-7.03890625 3.25972656 -7.8278125 3.45695313 -8.640625 3.66015625 C-11.10394822 4.01497267 -12.65604132 3.76877544 -15 3 C-13.06643218 2.30151736 -11.12797702 1.61655186 -9.1875 0.9375 C-8.10855469 0.55464844 -7.02960938 0.17179688 -5.91796875 -0.22265625 C-3 -1 -3 -1 0 0 Z " fill="#0962A9" transform="translate(365,240)"/>
<path d="M0 0 C4.49797113 1.68673918 8.72886302 3.81673892 13 6 C13 6.33 13 6.66 13 7 C8.27132978 6.53640488 4.81857204 5.9200845 1 3 C0.67 2.01 0.34 1.02 0 0 Z " fill="#075094" transform="translate(439,976)"/>
<path d="M0 0 C-2.66315194 2.66315194 -4.65344068 2.94426493 -8.359375 3.09765625 C-9.14828125 3.08605469 -9.9371875 3.07445312 -10.75 3.0625 C-11.54921875 3.05347656 -12.3484375 3.04445313 -13.171875 3.03515625 C-13.77515625 3.02355469 -14.3784375 3.01195312 -15 3 C-5.21459227 -2.08583691 -5.21459227 -2.08583691 0 0 Z " fill="#0E66AB" transform="translate(407,360)"/>
<path d="M0 0 C1.58409994 0.11487748 3.16728963 0.24234508 4.75 0.375 C6.07257812 0.47941406 6.07257812 0.47941406 7.421875 0.5859375 C9.99066382 0.99850055 11.75841015 1.71160957 14 3 C6.0776699 4.39805825 6.0776699 4.39805825 2 3 C1.34 2.01 0.68 1.02 0 0 Z " fill="#0C63A8" transform="translate(545,340)"/>
<path d="M0 0 C-3.83704776 2.55803184 -7.75712791 4.34505724 -12.4375 3.625 C-12.953125 3.41875 -13.46875 3.2125 -14 3 C-13.01 3 -12.02 3 -11 3 C-11 2.34 -11 1.68 -11 1 C-6.87831311 -0.62950412 -4.29299643 -1.26264601 0 0 Z " fill="#0A5DA2" transform="translate(531,1004)"/>
<path d="M0 0 C-1.50139512 4.20390632 -4.17275043 5.89110738 -8 8 C-8.99 7.67 -9.98 7.34 -11 7 C-9.54634731 5.82750647 -8.08692581 4.66216184 -6.625 3.5 C-5.40683594 2.52546875 -5.40683594 2.52546875 -4.1640625 1.53125 C-2 0 -2 0 0 0 Z " fill="#085093" transform="translate(666,922)"/>
<path d="M0 0 C-0.33 0.66 -0.66 1.32 -1 2 C-4.96 2 -8.92 2 -13 2 C-12 0 -12 0 -10.4375 -0.6875 C-6.83532854 -1.14931685 -3.58833068 -0.5382496 0 0 Z " fill="#01498F" transform="translate(600,679)"/>
<path d="M0 0 C1.58467728 0.28427417 3.1677057 0.57774818 4.75 0.875 C6.07257812 1.11863281 6.07257812 1.11863281 7.421875 1.3671875 C9.86947744 1.96796264 11.80599857 2.77997117 14 4 C12.58376784 4.05447047 11.16691809 4.09300508 9.75 4.125 C8.96109375 4.14820313 8.1721875 4.17140625 7.359375 4.1953125 C4.75385683 3.97962391 3.20013023 3.3921178 1 2 C0.67 1.34 0.34 0.68 0 0 Z " fill="#0B62A8" transform="translate(622,359)"/>
<path d="M0 0 C0.97582031 0.10183594 1.95164062 0.20367187 2.95703125 0.30859375 C3.69308594 0.39238281 4.42914062 0.47617187 5.1875 0.5625 C5.1875 0.8925 5.1875 1.2225 5.1875 1.5625 C3.27246326 1.78531874 1.35533494 1.99021076 -0.5625 2.1875 C-1.62984375 2.30351562 -2.6971875 2.41953125 -3.796875 2.5390625 C-6.85042399 2.56279475 -8.27412421 2.17670985 -10.8125 0.5625 C-7.01982808 -0.3735342 -3.87575435 -0.42026252 0 0 Z " fill="#0E68AD" transform="translate(853.8125,336.4375)"/>
<path d="M0 0 C4.571279 0.54855348 8.67435795 1.41744803 13 3 C13 3.33 13 3.66 13 4 C11.741875 4.020625 10.48375 4.04125 9.1875 4.0625 C8.47980469 4.07410156 7.77210938 4.08570313 7.04296875 4.09765625 C5 4 5 4 2 3 C2 2.34 2 1.68 2 1 C1.34 0.67 0.68 0.34 0 0 Z " fill="#054D92" transform="translate(690,329)"/>
<path d="M0 0 C2.66666667 2.66666667 5.33333333 5.33333333 8 8 C7.67 8.66 7.34 9.32 7 10 C4.09197539 7.78071806 2.04687238 6.07030857 0 3 C0 2.01 0 1.02 0 0 Z " fill="#074D90" transform="translate(260,826)"/>
<path d="M0 0 C1.18414294 3.55242882 0.69535532 4.69830562 -0.4375 8.1875 C-0.72496094 9.08855469 -1.01242187 9.98960937 -1.30859375 10.91796875 C-1.53675781 11.60503906 -1.76492188 12.29210937 -2 13 C-3.95881942 9.72079119 -4.05559492 9.23826396 -3.125 5.25 C-2.75375 4.1775 -2.3825 3.105 -2 2 C-1.34 2 -0.68 2 0 2 C0 1.34 0 0.68 0 0 Z " fill="#0B5DA2" transform="translate(848,671)"/>
<path d="M0 0 C1.75070517 0.11470137 3.50057536 0.24219028 5.25 0.375 C6.22453125 0.44460938 7.1990625 0.51421875 8.203125 0.5859375 C11 1 11 1 15 3 C11.37 3 7.74 3 4 3 C4 2.34 4 1.68 4 1 C2.68 0.67 1.36 0.34 0 0 Z " fill="#044A90" transform="translate(580,301)"/>
<path d="M0 0 C4.16138263 -0.08159574 7.9472484 0.01751476 12 1 C12 1.99 12 2.98 12 4 C10.5608866 3.71640113 9.12374482 3.42278601 7.6875 3.125 C6.88699219 2.96257812 6.08648438 2.80015625 5.26171875 2.6328125 C3 2 3 2 0 0 Z " fill="#0A61A7" transform="translate(663,211)"/>
<path d="M0 0 C0.66 0.33 1.32 0.66 2 1 C-0.36595933 3.61500768 -2.86049226 5.38999603 -6 7 C-6.66 6.67 -7.32 6.34 -8 6 C-5.63404067 3.38499232 -3.13950774 1.61000397 0 0 Z " fill="#085498" transform="translate(587,973)"/>
<path d="M0 0 C3.77727089 1.81309003 7.37269822 3.9073259 11 6 C9.3125 6.6875 9.3125 6.6875 7 7 C3.30194812 5.32707177 1.44626119 3.81287042 0 0 Z " fill="#064D90" transform="translate(409,958)"/>
<path d="M0 0 C3.48331435 3.01887244 4.79157144 5.56909529 6 10 C5.34 10 4.68 10 4 10 C1.1605948 6.32547562 0 4.73113419 0 0 Z " fill="#084E90" transform="translate(234,790)"/>
<path d="M0 0 C-3.08809695 1.76462683 -4.23312136 2 -8 2 C-8 2.66 -8 3.32 -8 4 C-10.97 3.67 -13.94 3.34 -17 3 C-17 2.67 -17 2.34 -17 2 C-15.10507994 1.66151348 -13.20901534 1.32943089 -11.3125 1 C-9.72888672 0.7215625 -9.72888672 0.7215625 -8.11328125 0.4375 C-5.35095938 0.04931926 -2.78257957 -0.08259976 0 0 Z " fill="#1378BC" transform="translate(334,376)"/>
<path d="M0 0 C1.258125 -0.020625 2.51625 -0.04125 3.8125 -0.0625 C4.52019531 -0.07410156 5.22789062 -0.08570313 5.95703125 -0.09765625 C8 0 8 0 11 1 C11 1.66 11 2.32 11 3 C11.66 3.33 12.32 3.66 13 4 C11.39431334 3.71682074 9.79047953 3.42312209 8.1875 3.125 C7.29417969 2.96257812 6.40085937 2.80015625 5.48046875 2.6328125 C3 2 3 2 0 0 Z " fill="#0960A8" transform="translate(667,323)"/>
<path d="M0 0 C0.33 0.66 0.66 1.32 1 2 C-1.31 1.67 -3.62 1.34 -6 1 C-6 1.66 -6 2.32 -6 3 C-8.31 2.67 -10.62 2.34 -13 2 C-13 1.67 -13 1.34 -13 1 C-8.59085217 -0.10228696 -4.51617599 -0.07654536 0 0 Z " fill="#116DAF" transform="translate(860,370)"/>
<path d="M0 0 C-3.06246747 1.78409802 -5.22079273 2.22880021 -8.75 2.125 C-9.54921875 2.10695312 -10.3484375 2.08890625 -11.171875 2.0703125 C-11.77515625 2.04710937 -12.3784375 2.02390625 -13 2 C-8.19155649 -1.20562901 -5.57936203 -0.94743883 0 0 Z " fill="#0D64AB" transform="translate(396,232)"/>
<path d="M0 0 C-2.85306797 2.32472205 -5.54074837 3.7508258 -9 5 C-9.66 4.34 -10.32 3.68 -11 3 C-9.73581754 2.30034557 -8.46334598 1.61565237 -7.1875 0.9375 C-6.47980469 0.55464844 -5.77210938 0.17179688 -5.04296875 -0.22265625 C-3 -1 -3 -1 0 0 Z " fill="#0C62A4" transform="translate(166,173)"/>
<path d="M0 0 C6.52307692 0.61538462 6.52307692 0.61538462 8.9375 2.5625 C9.288125 3.036875 9.63875 3.51125 10 4 C9.01 4.495 9.01 4.495 8 5 C6.0546875 4.22265625 6.0546875 4.22265625 3.875 3.0625 C3.15054687 2.68222656 2.42609375 2.30195312 1.6796875 1.91015625 C1.12539063 1.60980469 0.57109375 1.30945313 0 1 C0 0.67 0 0.34 0 0 Z " fill="#0B5EA2" transform="translate(469,993)"/>
<path d="M0 0 C-1.29299694 2.88437779 -2.65941363 4.87219421 -5 7 C-5.99 6.67 -6.98 6.34 -8 6 C-7.0479279 4.99403703 -6.08812654 3.99538437 -5.125 3 C-4.59132813 2.443125 -4.05765625 1.88625 -3.5078125 1.3125 C-2 0 -2 0 0 0 Z " fill="#055095" transform="translate(723,872)"/>
<path d="M0 0 C0.33 0 0.66 0 1 0 C1.09038099 5.15171623 0.84681133 9.91913204 0 15 C-0.33 15 -0.66 15 -1 15 C-1.33 11.7 -1.66 8.4 -2 5 C-1.67 5 -1.34 5 -1 5 C-0.67 3.35 -0.34 1.7 0 0 Z " fill="#106BAF" transform="translate(861,607)"/>
<path d="M0 0 C0 3.86695678 -1.41909971 6.5088452 -3 10 C-3.33 10 -3.66 10 -4 10 C-4.25 7.25 -4.25 7.25 -4 4 C-2 1.625 -2 1.625 0 0 Z " fill="#064D92" transform="translate(829,292)"/>
<path d="M0 0 C0.91007812 0.10183594 1.82015625 0.20367187 2.7578125 0.30859375 C3.45648438 0.39238281 4.15515625 0.47617188 4.875 0.5625 C4.875 0.8925 4.875 1.2225 4.875 1.5625 C1.245 1.8925 -2.385 2.2225 -6.125 2.5625 C-6.455 1.9025 -6.785 1.2425 -7.125 0.5625 C-4.50184968 -0.74907516 -2.89466564 -0.33399988 0 0 Z " fill="#0A60A6" transform="translate(425.125,193.4375)"/>
<path d="M0 0 C-1.32 0.33 -2.64 0.66 -4 1 C-4 1.66 -4 2.32 -4 3 C-6.70879335 4.35439668 -9.00933268 4.06501451 -12 4 C-4 -1.33333333 -4 -1.33333333 0 0 Z " fill="#0D63A6" transform="translate(227,146)"/>
<path d="M0 0 C6.52307692 0.61538462 6.52307692 0.61538462 8.9375 2.5625 C9.288125 3.036875 9.63875 3.51125 10 4 C9.01 4.495 9.01 4.495 8 5 C6.0546875 4.22265625 6.0546875 4.22265625 3.875 3.0625 C3.15054688 2.68222656 2.42609375 2.30195313 1.6796875 1.91015625 C1.12539063 1.60980469 0.57109375 1.30945313 0 1 C0 0.67 0 0.34 0 0 Z " fill="#065094" transform="translate(761,129)"/>
<path d="M0 0 C0.33 0.99 0.66 1.98 1 3 C-2.13498292 4.85776765 -4.37471432 5.20140476 -8 5 C-5.44008376 2.98863724 -2.95409701 1.37154504 0 0 Z " fill="#075296" transform="translate(547,994)"/>
<path d="M0 0 C3.77545388 1.09068668 6.47043472 1.9083091 9 5 C3.48387097 4.38709677 3.48387097 4.38709677 1.125 2.5 C0 1 0 1 0 0 Z " fill="#074E91" transform="translate(454,984)"/>
<path d="M0 0 C0.99 0.33 1.98 0.66 3 1 C0.69 2.65 -1.62 4.3 -4 6 C-4.66 5.67 -5.32 5.34 -6 5 C-2.25 1.125 -2.25 1.125 0 0 Z " fill="#0B5B9E" transform="translate(624,951)"/>
<path d="M0 0 C3.08089673 2.77280706 4.68775452 5.06326356 6 9 C3.5067466 8.00269864 2.22532561 7.34925469 0.75 5.0625 C0 3 0 3 0 0 Z " fill="#074C8D" transform="translate(222,772)"/>
<path d="M0 0 C1.258125 0.12375 2.51625 0.2475 3.8125 0.375 C4.87404297 0.47941406 4.87404297 0.47941406 5.95703125 0.5859375 C8 1 8 1 11 3 C8.21192326 3.77446576 6.56670499 4.21049043 3.8125 3.1875 C2 2 2 2 0 0 Z " fill="#1066AC" transform="translate(647,366)"/>
<path d="M0 0 C2.97 0 5.94 0 9 0 C9 0.66 9 1.32 9 2 C9.66 2.33 10.32 2.66 11 3 C9.741875 2.87625 8.48375 2.7525 7.1875 2.625 C6.12595703 2.52058594 6.12595703 2.52058594 5.04296875 2.4140625 C3 2 3 2 0 0 Z " fill="#04498E" transform="translate(631,363)"/>
<path d="M0 0 C6.52307692 -0.36923077 6.52307692 -0.36923077 8.9375 1.5 C9.288125 1.995 9.63875 2.49 10 3 C8 4 8 4 6.0546875 3.44140625 C5.33539062 3.15136719 4.61609375 2.86132812 3.875 2.5625 C3.15054688 2.27503906 2.42609375 1.98757812 1.6796875 1.69140625 C0.84824219 1.34916016 0.84824219 1.34916016 0 1 C0 0.67 0 0.34 0 0 Z " fill="#0B5FA6" transform="translate(695,222)"/>
<path d="M0 0 C-1.32 0.33 -2.64 0.66 -4 1 C-4 1.66 -4 2.32 -4 3 C-6.31 3.33 -8.62 3.66 -11 4 C-4.14893617 -1.38297872 -4.14893617 -1.38297872 0 0 Z " fill="#0C65A9" transform="translate(388,73)"/>
<path d="M0 0 C2.97 0.99 5.94 1.98 9 3 C5 5 5 5 2.8125 4.3125 C1 3 1 3 0 0 Z " fill="#0B60A4" transform="translate(596,54)"/>
<path d="M0 0 C0.33 0.99 0.66 1.98 1 3 C-0.8125 5.6875 -0.8125 5.6875 -3 8 C-3.66 8 -4.32 8 -5 8 C-3.62845496 5.04590299 -2.01136276 2.55991624 0 0 Z " fill="#084E90" transform="translate(765,823)"/>
<path d="M0 0 C2.64 0 5.28 0 8 0 C5.09907498 1.93395001 4.10325263 2.30131941 0.8125 2.625 C-0.445625 2.74875 -1.70375 2.8725 -3 3 C-2.01 2.67 -1.02 2.34 0 2 C0 1.34 0 0.68 0 0 Z " fill="#04498E" transform="translate(414,356)"/>
<path d="M0 0 C0.66 0.33 1.32 0.66 2 1 C0.68 3.31 -0.64 5.62 -2 8 C-2.66 7.67 -3.32 7.34 -4 7 C-3.43628586 3.73045798 -2.50037734 2.17424117 0 0 Z " fill="#0C599C" transform="translate(313,256)"/>
<path d="M0 0 C0.33 0.99 0.66 1.98 1 3 C-1 5 -1 5 -3.1640625 5.1953125 C-4.38222656 5.16050781 -4.38222656 5.16050781 -5.625 5.125 C-6.44226563 5.10695312 -7.25953125 5.08890625 -8.1015625 5.0703125 C-8.72804688 5.04710937 -9.35453125 5.02390625 -10 5 C-10 4.67 -10 4.34 -10 4 C-8.906875 3.896875 -7.81375 3.79375 -6.6875 3.6875 C-3.14440371 3.02692273 -2.06756277 2.7972908 0 0 Z " fill="#044385" transform="translate(282,248)"/>
<path d="M0 0 C2.6875 0.875 2.6875 0.875 5 2 C5 2.66 5 3.32 5 4 C5.66 4.33 6.32 4.66 7 5 C3.44219804 4.39009109 0.3171411 3.4216319 -3 2 C-2.01 1.34 -1.02 0.68 0 0 Z " fill="#0960A7" transform="translate(256,245)"/>
<path d="M0 0 C2.97 0.99 5.94 1.98 9 3 C9 3.33 9 3.66 9 4 C3.48 4.368 3.48 4.368 1.125 2.5625 C0 1 0 1 0 0 Z " fill="#074F93" transform="translate(207,226)"/>
<path d="M0 0 C2.97 0 5.94 0 9 0 C6.09907498 1.93395001 5.10325263 2.30131941 1.8125 2.625 C0.554375 2.74875 -0.70375 2.8725 -2 3 C-1.34 2.67 -0.68 2.34 0 2 C0 1.34 0 0.68 0 0 Z " fill="#0B68AF" transform="translate(377,203)"/>
<path d="M0 0 C-0.99 0.33 -1.98 0.66 -3 1 C-3 1.66 -3 2.32 -3 3 C-5.64 3 -8.28 3 -11 3 C-7.11595442 0.41063628 -4.5725325 -0.12358196 0 0 Z " fill="#044A90" transform="translate(393,200)"/>
<path d="M0 0 C2.97 0.99 5.94 1.98 9 3 C9 3.33 9 3.66 9 4 C3.48 4.368 3.48 4.368 1.125 2.5625 C0 1 0 1 0 0 Z " fill="#0B5EA3" transform="translate(605,58)"/>
<path d="M0 0 C3.37503669 1.1858237 5.64722731 2.27573689 8 5 C4.33776842 4.50510384 2.33006074 3.94323463 0 1 C0 0.67 0 0.34 0 0 Z " fill="#064D91" transform="translate(425,968)"/>
<path d="M0 0 C0.66 0 1.32 0 2 0 C5 4.38461538 5 4.38461538 5 7 C2 6 2 6 0 3 C0 2.01 0 1.02 0 0 Z " fill="#084E90" transform="translate(228,782)"/>
<path d="M0 0 C3.465 1.485 3.465 1.485 7 3 C7 3.99 7 4.98 7 6 C3.535 4.02 3.535 4.02 0 2 C0 1.34 0 0.68 0 0 Z " fill="#0D599C" transform="translate(440,678)"/>
<path d="M0 0 C0.33 1.32 0.66 2.64 1 4 C-2.63 4 -6.26 4 -10 4 C-10 3.67 -10 3.34 -10 3 C-8.72125 2.87625 -7.4425 2.7525 -6.125 2.625 C-2.65209064 2.30957601 -2.65209064 2.30957601 0 0 Z " fill="#044287" transform="translate(713,330)"/>
<path d="M0 0 C-2.6855594 2.6855594 -5.37621328 3.06049974 -9 4 C-8.67 3.01 -8.34 2.02 -8 1 C-5.07175348 0.02391783 -3.04386724 -0.08226668 0 0 Z " fill="#0A5EA2" transform="translate(324,223)"/>
<path d="M0 0 C-0.99 1.32 -1.98 2.64 -3 4 C-3.33 3.34 -3.66 2.68 -4 2 C-5.65 2 -7.3 2 -9 2 C-5.945634 -1.054366 -3.9532319 -1.22686507 0 0 Z " fill="#0D6AB1" transform="translate(839,219)"/>
<path d="M0 0 C6.625 0.75 6.625 0.75 10 3 C3.47692308 3.36923077 3.47692308 3.36923077 1.0625 1.5 C0.5365625 0.7575 0.5365625 0.7575 0 0 Z " fill="#044589" transform="translate(657,208)"/>
<path d="M0 0 C3.82097239 0.53069061 6.06171403 1.49701566 9 4 C6 5 6 5 3.8125 4.0625 C3.214375 3.711875 2.61625 3.36125 2 3 C2 2.34 2 1.68 2 1 C1.34 0.67 0.68 0.34 0 0 Z " fill="#0C5FA4" transform="translate(846,166)"/>
<path d="M0 0 C3.82097239 0.53069061 6.06171403 1.49701566 9 4 C8.01 4.33 7.02 4.66 6 5 C3.63158688 3.42105792 1.93254772 2.0245738 0 0 Z " fill="#0B60A3" transform="translate(835,161)"/>
<path d="M0 0 C2.31 0.33 4.62 0.66 7 1 C7 1.66 7 2.32 7 3 C7.66 3.33 8.32 3.66 9 4 C5.65626525 3.44271087 2.96687001 2.64826111 0 1 C0 0.67 0 0.34 0 0 Z " fill="#054C91" transform="translate(676,91)"/>
<path d="M0 0 C0.66 0.33 1.32 0.66 2 1 C-0.22189824 3.22189824 -2.08482708 3.92598892 -5 5 C-5.66 4.34 -6.32 3.68 -7 3 C-4.69631264 1.93347808 -2.35981813 0.93578995 0 0 Z " fill="#0B60A6" transform="translate(476,32)"/>
<path d="M0 0 C1.98 0 3.96 0 6 0 C6 0.33 6 0.66 6 1 C4.02 1 2.04 1 0 1 C0 0.67 0 0.34 0 0 Z " fill="#025BA4" transform="translate(456,216)"/>
<path d="M0 0 C1.65 0 3.3 0 5 0 C5 0.33 5 0.66 5 1 C3.35 1 1.7 1 0 1 C0 0.67 0 0.34 0 0 Z " fill="#0660AB" transform="translate(449,303)"/>
<path d="M0 0 C1 4 1 4 1 4 Z " fill="#085AA0" transform="translate(572,748)"/>
<path d="M0 0 C1 4 1 4 1 4 Z " fill="#07599D" transform="translate(572,724)"/>
<path d="M0 0 C1 4 1 4 1 4 Z " fill="#08599C" transform="translate(572,700)"/>
<path d="M0 0 C1 4 1 4 1 4 Z " fill="#075A9D" transform="translate(156,460)"/>
<path d="M0 0 C1 4 1 4 1 4 Z " fill="#07579A" transform="translate(156,436)"/>
<path d="M0 0 C1 4 1 4 1 4 Z " fill="#07579B" transform="translate(156,428)"/>
<path d="M0 0 C1 4 1 4 1 4 Z " fill="#085798" transform="translate(156,396)"/>
<path d="M0 0 C4 1 4 1 4 1 Z " fill="#035495" transform="translate(166,368)"/>
<path d="M0 0 C4 1 4 1 4 1 Z " fill="#055FA8" transform="translate(457,302)"/>
<path d="M0 0 C4 1 4 1 4 1 Z " fill="#045FA8" transform="translate(489,190)"/>
<path d="" fill="#08579B" transform="translate(0,0)"/>
<path d="" fill="#075BA2" transform="translate(0,0)"/>
<path d="" fill="#075DA3" transform="translate(0,0)"/>
<path d="" fill="#085BA2" transform="translate(0,0)"/>
<path d="" fill="#085699" transform="translate(0,0)"/>
<path d="M0 0 C3 1 3 1 3 1 Z " fill="#095EA4" transform="translate(812,376)"/>
<path d="M0 0 C3 1 3 1 3 1 Z " fill="#06599F" transform="translate(852,368)"/>
<path d="M0 0 C3 1 3 1 3 1 Z " fill="#055CA4" transform="translate(604,352)"/>
<path d="M0 0 C3 1 3 1 3 1 Z " fill="#045CA4" transform="translate(616,311)"/>
<path d="M0 0 C3 1 3 1 3 1 Z " fill="#0460A9" transform="translate(689,222)"/>
<path d="M0 0 C2 1 2 1 2 1 Z " fill="#05579A" transform="translate(424,971)"/>
<path d="" fill="#075BA3" transform="translate(0,0)"/>
<path d="" fill="#075BA1" transform="translate(0,0)"/>
<path d="" fill="#085CA1" transform="translate(0,0)"/>
<path d="" fill="#065296" transform="translate(0,0)"/>
<path d="" fill="#09599F" transform="translate(0,0)"/>
<path d="" fill="#08599F" transform="translate(0,0)"/>
<path d="" fill="#07589E" transform="translate(0,0)"/>
<path d="" fill="#075A9F" transform="translate(0,0)"/>
<path d="" fill="#085A9F" transform="translate(0,0)"/>
<path d="" fill="#08599D" transform="translate(0,0)"/>
<path d="" fill="#085A9E" transform="translate(0,0)"/>
<path d="" fill="#09579B" transform="translate(0,0)"/>
<path d="M0 0 C2 1 2 1 2 1 Z " fill="#0660AA" transform="translate(680,559)"/>
<path d="" fill="#065699" transform="translate(0,0)"/>
<path d="" fill="#085B9D" transform="translate(0,0)"/>
<path d="" fill="#075BA2" transform="translate(0,0)"/>
<path d="" fill="#075BA1" transform="translate(0,0)"/>
<path d="" fill="#08599C" transform="translate(0,0)"/>
<path d="" fill="#07589C" transform="translate(0,0)"/>
<path d="" fill="#075CA4" transform="translate(0,0)"/>
<path d="" fill="#07599C" transform="translate(0,0)"/>
<path d="" fill="#06589C" transform="translate(0,0)"/>
<path d="" fill="#0560A8" transform="translate(0,0)"/>
<path d="" fill="#075596" transform="translate(0,0)"/>
<path d="M0 0 C2 1 2 1 2 1 Z " fill="#06579A" transform="translate(857,368)"/>
<path d="M0 0 C2 1 2 1 2 1 Z " fill="#0663A8" transform="translate(361,368)"/>
<path d="" fill="#075EA8" transform="translate(0,0)"/>
<path d="M0 0 C2 1 2 1 2 1 Z " fill="#04579E" transform="translate(278,255)"/>
<path d="" fill="#035BA5" transform="translate(0,0)"/>
<path d="M0 0 C2 1 2 1 2 1 Z " fill="#045CA4" transform="translate(691,248)"/>
<path d="" fill="#065FA7" transform="translate(0,0)"/>
<path d="M0 0 C2 1 2 1 2 1 Z " fill="#05569B" transform="translate(186,221)"/>
<path d="M0 0 C2 1 2 1 2 1 Z " fill="#055395" transform="translate(152,207)"/>
<path d="" fill="#0560A9" transform="translate(0,0)"/>
<path d="M0 0 C2 1 2 1 2 1 Z " fill="#065FA9" transform="translate(549,191)"/>
<path d="M0 0 C2 1 2 1 2 1 Z " fill="#065DA7" transform="translate(468,191)"/>
<path d="M0 0 C2 1 2 1 2 1 Z " fill="#0356A2" transform="translate(462,191)"/>
<path d="M0 0 C2 1 2 1 2 1 Z " fill="#045EA8" transform="translate(531,190)"/>
<path d="M0 0 C2 1 2 1 2 1 Z " fill="#045EA9" transform="translate(483,190)"/>
<path d="M0 0 C2 1 2 1 2 1 Z " fill="#044D8C" transform="translate(150,176)"/>
<path d="M0 0 C2 1 2 1 2 1 Z " fill="#035296" transform="translate(806,146)"/>
<path d="M0 0 C2 1 2 1 2 1 Z " fill="#024E92" transform="translate(766,128)"/>
<path d="" fill="#035294" transform="translate(0,0)"/>
<path d="M0 0 C2 1 2 1 2 1 Z " fill="#055697" transform="translate(345,88)"/>
<path d="" fill="#09589E" transform="translate(0,0)"/>
<path d="" fill="#08589D" transform="translate(0,0)"/>
<path d="" fill="#06559B" transform="translate(0,0)"/>
<path d="" fill="#02569B" transform="translate(0,0)"/>
<path d="" fill="#085599" transform="translate(0,0)"/>
<path d="" fill="#085598" transform="translate(0,0)"/>
<path d="" fill="#065497" transform="translate(0,0)"/>
<path d="" fill="#095799" transform="translate(0,0)"/>
<path d="" fill="#075396" transform="translate(0,0)"/>
<path d="" fill="#035196" transform="translate(0,0)"/>
<path d="" fill="#055094" transform="translate(0,0)"/>
<path d="" fill="#095392" transform="translate(0,0)"/>
<path d="" fill="#035196" transform="translate(0,0)"/>
<path d="" fill="#075195" transform="translate(0,0)"/>
<path d="" fill="#085394" transform="translate(0,0)"/>
<path d="" fill="#055195" transform="translate(0,0)"/>
<path d="" fill="#095393" transform="translate(0,0)"/>
<path d="" fill="#075598" transform="translate(0,0)"/>
<path d="" fill="#065295" transform="translate(0,0)"/>
<path d="" fill="#085397" transform="translate(0,0)"/>
<path d="" fill="#045297" transform="translate(0,0)"/>
<path d="" fill="#095EA4" transform="translate(0,0)"/>
<path d="" fill="#0B5DA4" transform="translate(0,0)"/>
<path d="" fill="#095EA4" transform="translate(0,0)"/>
<path d="" fill="#075DA4" transform="translate(0,0)"/>
<path d="" fill="#065395" transform="translate(0,0)"/>
<path d="" fill="#055296" transform="translate(0,0)"/>
<path d="" fill="#075AA1" transform="translate(0,0)"/>
<path d="" fill="#065AA2" transform="translate(0,0)"/>
<path d="" fill="#065599" transform="translate(0,0)"/>
<path d="" fill="#085BA2" transform="translate(0,0)"/>
<path d="" fill="#0A5CA1" transform="translate(0,0)"/>
<path d="" fill="#085CA1" transform="translate(0,0)"/>
<path d="" fill="#075BA3" transform="translate(0,0)"/>
<path d="" fill="#065397" transform="translate(0,0)"/>
<path d="" fill="#045598" transform="translate(0,0)"/>
<path d="" fill="#065496" transform="translate(0,0)"/>
<path d="" fill="#025698" transform="translate(0,0)"/>
<path d="" fill="#075697" transform="translate(0,0)"/>
<path d="" fill="#085597" transform="translate(0,0)"/>
<path d="" fill="#034F94" transform="translate(0,0)"/>
<path d="" fill="#085A9F" transform="translate(0,0)"/>
<path d="" fill="#0959A1" transform="translate(0,0)"/>
<path d="" fill="#085CA2" transform="translate(0,0)"/>
<path d="" fill="#095BA1" transform="translate(0,0)"/>
<path d="" fill="#085CA0" transform="translate(0,0)"/>
<path d="" fill="#075699" transform="translate(0,0)"/>
<path d="" fill="#085AA0" transform="translate(0,0)"/>
<path d="" fill="#075797" transform="translate(0,0)"/>
<path d="" fill="#085394" transform="translate(0,0)"/>
<path d="" fill="#085A9C" transform="translate(0,0)"/>
<path d="" fill="#075499" transform="translate(0,0)"/>
<path d="" fill="#095799" transform="translate(0,0)"/>
<path d="" fill="#085CA0" transform="translate(0,0)"/>
<path d="" fill="#065596" transform="translate(0,0)"/>
<path d="" fill="#085CA0" transform="translate(0,0)"/>
<path d="" fill="#085B9E" transform="translate(0,0)"/>
<path d="" fill="#085B9F" transform="translate(0,0)"/>
<path d="" fill="#07579A" transform="translate(0,0)"/>
<path d="" fill="#06559A" transform="translate(0,0)"/>
<path d="" fill="#095C9D" transform="translate(0,0)"/>
<path d="" fill="#095A9C" transform="translate(0,0)"/>
<path d="" fill="#075597" transform="translate(0,0)"/>
<path d="" fill="#085496" transform="translate(0,0)"/>
<path d="" fill="#065597" transform="translate(0,0)"/>
<path d="" fill="#0661A7" transform="translate(0,0)"/>
<path d="" fill="#0A60A7" transform="translate(0,0)"/>
<path d="" fill="#0760A8" transform="translate(0,0)"/>
<path d="" fill="#0960A8" transform="translate(0,0)"/>
<path d="" fill="#075797" transform="translate(0,0)"/>
<path d="" fill="#07589A" transform="translate(0,0)"/>
<path d="" fill="#06579E" transform="translate(0,0)"/>
<path d="" fill="#085EA5" transform="translate(0,0)"/>
<path d="" fill="#085899" transform="translate(0,0)"/>
<path d="" fill="#0762AA" transform="translate(0,0)"/>
<path d="" fill="#0762AA" transform="translate(0,0)"/>
<path d="" fill="#065FA7" transform="translate(0,0)"/>
<path d="" fill="#065EA7" transform="translate(0,0)"/>
<path d="" fill="#0760A8" transform="translate(0,0)"/>
<path d="" fill="#0660A8" transform="translate(0,0)"/>
<path d="" fill="#065EA5" transform="translate(0,0)"/>
<path d="" fill="#085CA2" transform="translate(0,0)"/>
<path d="" fill="#065EA7" transform="translate(0,0)"/>
<path d="" fill="#0560A8" transform="translate(0,0)"/>
<path d="" fill="#075EA6" transform="translate(0,0)"/>
<path d="" fill="#0762A9" transform="translate(0,0)"/>
<path d="" fill="#055EA7" transform="translate(0,0)"/>
<path d="" fill="#075EA4" transform="translate(0,0)"/>
<path d="" fill="#09579A" transform="translate(0,0)"/>
<path d="" fill="#085697" transform="translate(0,0)"/>
<path d="" fill="#09589B" transform="translate(0,0)"/>
<path d="" fill="#085A9D" transform="translate(0,0)"/>
<path d="" fill="#06599B" transform="translate(0,0)"/>
<path d="" fill="#075A9D" transform="translate(0,0)"/>
<path d="" fill="#08579B" transform="translate(0,0)"/>
<path d="" fill="#07579B" transform="translate(0,0)"/>
<path d="" fill="#075B9C" transform="translate(0,0)"/>
<path d="" fill="#075A9C" transform="translate(0,0)"/>
<path d="" fill="#095A9E" transform="translate(0,0)"/>
<path d="" fill="#0859A0" transform="translate(0,0)"/>
<path d="" fill="#075BA1" transform="translate(0,0)"/>
<path d="" fill="#0557A0" transform="translate(0,0)"/>
<path d="" fill="#07589C" transform="translate(0,0)"/>
<path d="" fill="#08599C" transform="translate(0,0)"/>
<path d="" fill="#055BA2" transform="translate(0,0)"/>
<path d="" fill="#095B9B" transform="translate(0,0)"/>
<path d="" fill="#085A9F" transform="translate(0,0)"/>
<path d="" fill="#075CA3" transform="translate(0,0)"/>
<path d="" fill="#075BA1" transform="translate(0,0)"/>
<path d="" fill="#08599B" transform="translate(0,0)"/>
<path d="" fill="#07599E" transform="translate(0,0)"/>
<path d="" fill="#07599D" transform="translate(0,0)"/>
<path d="" fill="#085DA1" transform="translate(0,0)"/>
<path d="" fill="#075DA4" transform="translate(0,0)"/>
<path d="" fill="#07599D" transform="translate(0,0)"/>
<path d="" fill="#085EA5" transform="translate(0,0)"/>
<path d="" fill="#085EA4" transform="translate(0,0)"/>
<path d="" fill="#075FA6" transform="translate(0,0)"/>
<path d="" fill="#075EA3" transform="translate(0,0)"/>
<path d="" fill="#065697" transform="translate(0,0)"/>
<path d="" fill="#095899" transform="translate(0,0)"/>
<path d="" fill="#085EA4" transform="translate(0,0)"/>
<path d="" fill="#075EA5" transform="translate(0,0)"/>
<path d="" fill="#075DA3" transform="translate(0,0)"/>
<path d="" fill="#055BA2" transform="translate(0,0)"/>
<path d="" fill="#075EA3" transform="translate(0,0)"/>
<path d="" fill="#085DA5" transform="translate(0,0)"/>
<path d="" fill="#06589D" transform="translate(0,0)"/>
<path d="" fill="#0860A9" transform="translate(0,0)"/>
<path d="" fill="#0861AA" transform="translate(0,0)"/>
<path d="" fill="#06599F" transform="translate(0,0)"/>
<path d="" fill="#044F92" transform="translate(0,0)"/>
<path d="" fill="#0860A9" transform="translate(0,0)"/>
<path d="" fill="#065EA9" transform="translate(0,0)"/>
<path d="" fill="#075BA3" transform="translate(0,0)"/>
<path d="" fill="#0462A7" transform="translate(0,0)"/>
<path d="" fill="#085DA8" transform="translate(0,0)"/>
<path d="" fill="#075FA6" transform="translate(0,0)"/>
<path d="" fill="#0560A8" transform="translate(0,0)"/>
<path d="" fill="#045BA5" transform="translate(0,0)"/>
<path d="" fill="#055CA2" transform="translate(0,0)"/>
<path d="" fill="#055DA6" transform="translate(0,0)"/>
<path d="" fill="#055DA4" transform="translate(0,0)"/>
<path d="" fill="#055AA1" transform="translate(0,0)"/>
<path d="" fill="#095FA6" transform="translate(0,0)"/>
<path d="" fill="#075DA3" transform="translate(0,0)"/>
<path d="" fill="#0861A9" transform="translate(0,0)"/>
<path d="" fill="#095DA5" transform="translate(0,0)"/>
<path d="" fill="#085DA9" transform="translate(0,0)"/>
<path d="" fill="#085DA3" transform="translate(0,0)"/>
<path d="" fill="#065AA3" transform="translate(0,0)"/>
<path d="" fill="#02569F" transform="translate(0,0)"/>
<path d="" fill="#0660AA" transform="translate(0,0)"/>
<path d="" fill="#025EA8" transform="translate(0,0)"/>
<path d="" fill="#055DA8" transform="translate(0,0)"/>
<path d="" fill="#075FA8" transform="translate(0,0)"/>
<path d="" fill="#075FA6" transform="translate(0,0)"/>
<path d="" fill="#065EAA" transform="translate(0,0)"/>
<path d="" fill="#075CA8" transform="translate(0,0)"/>
<path d="" fill="#0660AA" transform="translate(0,0)"/>
<path d="" fill="#045DA5" transform="translate(0,0)"/>
<path d="" fill="#085DA7" transform="translate(0,0)"/>
<path d="" fill="#065FA6" transform="translate(0,0)"/>
<path d="" fill="#065AA1" transform="translate(0,0)"/>
<path d="" fill="#085DA3" transform="translate(0,0)"/>
<path d="" fill="#0660A8" transform="translate(0,0)"/>
<path d="" fill="#0960A4" transform="translate(0,0)"/>
<path d="" fill="#085EA5" transform="translate(0,0)"/>
<path d="" fill="#065DA3" transform="translate(0,0)"/>
<path d="" fill="#0860A7" transform="translate(0,0)"/>
<path d="" fill="#055AA0" transform="translate(0,0)"/>
<path d="" fill="#0661A8" transform="translate(0,0)"/>
<path d="" fill="#05579D" transform="translate(0,0)"/>
<path d="" fill="#09589E" transform="translate(0,0)"/>
<path d="" fill="#055CA7" transform="translate(0,0)"/>
<path d="" fill="#02579D" transform="translate(0,0)"/>
<path d="" fill="#055EAA" transform="translate(0,0)"/>
<path d="" fill="#085FA6" transform="translate(0,0)"/>
<path d="" fill="#045FA7" transform="translate(0,0)"/>
<path d="" fill="#02569A" transform="translate(0,0)"/>
<path d="" fill="#055CA3" transform="translate(0,0)"/>
<path d="" fill="#07589D" transform="translate(0,0)"/>
<path d="" fill="#065FA9" transform="translate(0,0)"/>
<path d="" fill="#0660A8" transform="translate(0,0)"/>
<path d="" fill="#0560A8" transform="translate(0,0)"/>
<path d="" fill="#0661A7" transform="translate(0,0)"/>
<path d="" fill="#075EA6" transform="translate(0,0)"/>
<path d="" fill="#0560A9" transform="translate(0,0)"/>
<path d="" fill="#045DA4" transform="translate(0,0)"/>
<path d="" fill="#065EAA" transform="translate(0,0)"/>
<path d="" fill="#045FA5" transform="translate(0,0)"/>
<path d="" fill="#045DA3" transform="translate(0,0)"/>
<path d="" fill="#0660A9" transform="translate(0,0)"/>
<path d="" fill="#0563AD" transform="translate(0,0)"/>
<path d="" fill="#095CA6" transform="translate(0,0)"/>
<path d="" fill="#05579E" transform="translate(0,0)"/>
<path d="" fill="#055EA8" transform="translate(0,0)"/>
<path d="" fill="#06569D" transform="translate(0,0)"/>
<path d="" fill="#055598" transform="translate(0,0)"/>
<path d="" fill="#075FA6" transform="translate(0,0)"/>
<path d="" fill="#055EA9" transform="translate(0,0)"/>
<path d="" fill="#065EA6" transform="translate(0,0)"/>
<path d="" fill="#0360A9" transform="translate(0,0)"/>
<path d="" fill="#0560A9" transform="translate(0,0)"/>
<path d="" fill="#035AA2" transform="translate(0,0)"/>
<path d="" fill="#085FAA" transform="translate(0,0)"/>
<path d="" fill="#0560AA" transform="translate(0,0)"/>
<path d="" fill="#075EAA" transform="translate(0,0)"/>
<path d="" fill="#0661A9" transform="translate(0,0)"/>
<path d="" fill="#075FA6" transform="translate(0,0)"/>
<path d="" fill="#065FA7" transform="translate(0,0)"/>
<path d="" fill="#065AA3" transform="translate(0,0)"/>
<path d="" fill="#065FA9" transform="translate(0,0)"/>
<path d="" fill="#06589C" transform="translate(0,0)"/>
<path d="" fill="#065A9D" transform="translate(0,0)"/>
<path d="" fill="#0860AA" transform="translate(0,0)"/>
<path d="" fill="#0863AB" transform="translate(0,0)"/>
<path d="" fill="#045AA2" transform="translate(0,0)"/>
<path d="" fill="#035BA5" transform="translate(0,0)"/>
<path d="" fill="#0560A9" transform="translate(0,0)"/>
<path d="" fill="#055395" transform="translate(0,0)"/>
<path d="" fill="#035CA5" transform="translate(0,0)"/>
<path d="" fill="#0561AA" transform="translate(0,0)"/>
<path d="" fill="#065394" transform="translate(0,0)"/>
<path d="" fill="#0460A9" transform="translate(0,0)"/>
<path d="" fill="#0660A9" transform="translate(0,0)"/>
<path d="" fill="#035BA5" transform="translate(0,0)"/>
<path d="" fill="#055DA8" transform="translate(0,0)"/>
<path d="" fill="#055EA9" transform="translate(0,0)"/>
<path d="" fill="#035BA4" transform="translate(0,0)"/>
<path d="" fill="#075EA8" transform="translate(0,0)"/>
<path d="" fill="#0661AC" transform="translate(0,0)"/>
<path d="" fill="#034C88" transform="translate(0,0)"/>
<path d="" fill="#04447A" transform="translate(0,0)"/>
<path d="" fill="#0563AC" transform="translate(0,0)"/>
<path d="" fill="#065DA9" transform="translate(0,0)"/>
<path d="" fill="#0660AB" transform="translate(0,0)"/>
<path d="" fill="#065DA7" transform="translate(0,0)"/>
<path d="" fill="#055EA9" transform="translate(0,0)"/>
<path d="" fill="#0660AA" transform="translate(0,0)"/>
<path d="" fill="#05437B" transform="translate(0,0)"/>
<path d="" fill="#054A87" transform="translate(0,0)"/>
<path d="" fill="#034D8B" transform="translate(0,0)"/>
<path d="" fill="#055492" transform="translate(0,0)"/>
<path d="" fill="#045296" transform="translate(0,0)"/>
<path d="" fill="#045193" transform="translate(0,0)"/>
<path d="" fill="#045193" transform="translate(0,0)"/>
<path d="" fill="#035395" transform="translate(0,0)"/>
<path d="" fill="#065193" transform="translate(0,0)"/>
<path d="" fill="#035394" transform="translate(0,0)"/>
<path d="" fill="#035195" transform="translate(0,0)"/>
<path d="" fill="#054F92" transform="translate(0,0)"/>
<path d="" fill="#045697" transform="translate(0,0)"/>
<path d="" fill="#035195" transform="translate(0,0)"/>
<path d="" fill="#055595" transform="translate(0,0)"/>
<path d="" fill="#045292" transform="translate(0,0)"/>
<path d="" fill="#025094" transform="translate(0,0)"/>
<path d="" fill="#045193" transform="translate(0,0)"/>
<path d="" fill="#055395" transform="translate(0,0)"/>
<path d="" fill="#045297" transform="translate(0,0)"/>
<path d="" fill="#045294" transform="translate(0,0)"/>
<path d="" fill="#044E90" transform="translate(0,0)"/>
<path d="" fill="#065495" transform="translate(0,0)"/>
<path d="" fill="#035394" transform="translate(0,0)"/>
<path d="" fill="#045397" transform="translate(0,0)"/>
<path d="" fill="#034F93" transform="translate(0,0)"/>
<path d="" fill="#055392" transform="translate(0,0)"/>
<path d="" fill="#055494" transform="translate(0,0)"/>
<path d="" fill="#065596" transform="translate(0,0)"/>
<path d="" fill="#035394" transform="translate(0,0)"/>
<path d="" fill="#045599" transform="translate(0,0)"/>
<path d="" fill="#055396" transform="translate(0,0)"/>
<path d="" fill="#035195" transform="translate(0,0)"/>
<path d="" fill="#065597" transform="translate(0,0)"/>
<path d="" fill="#055397" transform="translate(0,0)"/>
<path d="" fill="#045497" transform="translate(0,0)"/>
<path d="" fill="#045699" transform="translate(0,0)"/>
<path d="" fill="#06589C" transform="translate(0,0)"/>
<path d="" fill="#04579A" transform="translate(0,0)"/>
<path d="" fill="#035799" transform="translate(0,0)"/>
<path d="" fill="#025699" transform="translate(0,0)"/>
<path d="" fill="#03559A" transform="translate(0,0)"/>
<path d="" fill="#045699" transform="translate(0,0)"/>
<path d="" fill="#03589E" transform="translate(0,0)"/>
<path d="" fill="#065B9E" transform="translate(0,0)"/>
<path d="" fill="#065B9F" transform="translate(0,0)"/>
<path d="" fill="#075A9F" transform="translate(0,0)"/>
<path d="" fill="#065BA0" transform="translate(0,0)"/>
</svg>
